<?xml version="1.0" encoding="UTF-8"?>
<svg version="1.1" xmlns="http://www.w3.org/2000/svg" width="2048" height="2048">
<path d="M0 0 C2.54874003 0.13103179 5.09787574 0.24996475 7.6472168 0.36865234 C9.29373895 0.45254965 10.94022496 0.53715986 12.58666992 0.62255859 C13.33580154 0.65598358 14.08493317 0.68940857 14.85676575 0.72384644 C19.88113092 1.00290151 24.35943572 1.9674114 29.22338867 3.25537109 C30.95831967 3.52265133 32.69971445 3.75295536 34.44604492 3.93115234 C35.38512695 4.03419678 36.32420898 4.13724121 37.29174805 4.2434082 C38.27981445 4.35048096 39.26788086 4.45755371 40.28588867 4.56787109 C52.47383385 5.99161732 64.29634967 8.411914 76.22338867 11.25537109 C76.98119629 11.43213379 77.73900391 11.60889648 78.51977539 11.79101562 C90.65116118 14.62638407 102.60431489 18.07725002 114.25415039 22.50756836 C116.10974403 23.21221544 117.97300302 23.89658111 119.83666992 24.57958984 C142.04142338 32.76275664 163.91365249 42.04044623 184.22338867 54.25537109 C185.34487305 54.92568359 186.46635742 55.59599609 187.62182617 56.28662109 C193.66295485 59.9479112 199.43869746 63.74748773 205.00463867 68.10302734 C207.17099747 69.4641821 207.17099747 69.4641821 209.68041992 69.13818359 C212.59763345 68.12544894 214.84421472 66.78530581 217.41088867 65.06787109 C218.86881836 64.11267578 218.86881836 64.11267578 220.35620117 63.13818359 C221.30237305 62.51685547 222.24854492 61.89552734 223.22338867 61.25537109 C236.73516784 52.78188246 250.85621475 45.16723845 265.22338867 38.25537109 C266.33456055 37.72041016 267.44573242 37.18544922 268.59057617 36.63427734 C274.53350379 33.83061385 280.4806895 31.34828637 286.68432617 29.18505859 C289.05817827 28.31586352 291.31097795 27.32837467 293.59838867 26.25537109 C298.32022385 24.09366917 303.20381558 22.66129596 308.17651367 21.18896484 C310.5305661 20.46765904 312.7624039 19.6858903 315.03588867 18.75537109 C319.71373037 16.91836459 324.61994501 15.84979374 329.50195312 14.70068359 C332.29245871 14.03510185 334.96833191 13.36230354 337.61791992 12.25146484 C341.54482891 10.7501728 345.59516631 10.12482947 349.72338867 9.38037109 C351.61669629 9.03183863 353.50992328 8.68286798 355.40307617 8.33349609 C356.36955078 8.15625 357.33602539 7.97900391 358.33178711 7.79638672 C361.09500925 7.27939075 363.85086626 6.73459593 366.60620117 6.17724609 C410.91702405 -2.73265746 459.74569324 -2.97818291 504.22338867 5.25537109 C505.09914551 5.41295898 505.97490234 5.57054687 506.87719727 5.73291016 C533.89789694 10.61105096 533.89789694 10.61105096 544.62573242 14.38818359 C547.36118774 15.30137319 550.12126558 16.10140535 552.89404297 16.89282227 C560.22763111 18.99016327 567.46133511 21.29731666 574.66088867 23.81787109 C575.86612183 24.23891113 575.86612183 24.23891113 577.09570312 24.66845703 C596.46605392 31.5296612 615.31424116 40.18545897 633.22338867 50.25537109 C633.81168457 50.58053711 634.39998047 50.90570312 635.00610352 51.24072266 C642.55936053 55.41982098 642.55936053 55.41982098 645.22338867 57.25537109 C645.22338867 57.91537109 645.22338867 58.57537109 645.22338867 59.25537109 C646.11026367 59.52349609 646.99713867 59.79162109 647.91088867 60.06787109 C651.01435527 61.18043459 653.53449552 62.35732887 656.22338867 64.25537109 C656.22338867 64.91537109 656.22338867 65.57537109 656.22338867 66.25537109 C657.48602539 66.59375 657.48602539 66.59375 658.77416992 66.93896484 C662.88783647 68.50895989 665.92808779 70.67137546 669.41088867 73.31787109 C670.06581299 73.80666748 670.7207373 74.29546387 671.39550781 74.79907227 C676.29846547 78.48452096 681.06286193 82.31532779 685.77026367 86.24755859 C688.70941057 88.65316609 691.75433005 90.87933988 694.86010742 93.06396484 C695.30999023 93.45712891 695.75987305 93.85029297 696.22338867 94.25537109 C696.22338867 94.91537109 696.22338867 95.57537109 696.22338867 96.25537109 C697.10124023 96.655625 697.10124023 96.655625 697.99682617 97.06396484 C700.27069044 98.28068169 701.93504781 99.59586432 703.84838867 101.31787109 C704.54577148 101.94435547 705.2431543 102.57083984 705.96166992 103.21630859 C706.70803711 103.88919922 707.4544043 104.56208984 708.22338867 105.25537109 C709.3893457 106.26470703 709.3893457 106.26470703 710.57885742 107.29443359 C716.77401832 112.71150592 722.33600424 118.56892093 727.81469727 124.68945312 C729.7106407 126.79700619 731.63187416 128.88067627 733.55371094 130.96459961 C735.78567105 133.38693843 738.00493568 135.82065382 740.22338867 138.25537109 C740.83698242 138.92826172 741.45057617 139.60115234 742.08276367 140.29443359 C747.33801638 146.17531162 752.13328354 152.42446177 756.96899414 158.64990234 C758.01259985 159.98558766 759.07121991 161.30952527 760.13354492 162.63037109 C768.03567718 172.49402555 774.74691725 183.29441117 781.29370117 194.08740234 C782.58122617 196.20113265 783.88866697 198.3028583 785.21557617 200.39208984 C790.07178794 208.07321858 794.24549913 215.92747048 798.18041992 224.10449219 C799.23816922 226.28585251 800.32268799 228.45234472 801.41088867 230.61865234 C807.25583805 242.41174224 811.74820843 254.53402216 816.04736328 266.96313477 C816.89063183 269.32383154 817.75801791 271.65994281 818.66699219 273.99487305 C822.37949019 283.55038467 825.32345287 293.11872554 827.78588867 303.06787109 C827.97626709 303.8241983 828.16664551 304.58052551 828.36279297 305.35977173 C831.76399944 318.97222441 834.04403269 332.63795521 835.81542969 346.54956055 C835.9063942 347.26346954 835.9973587 347.97737854 836.09107971 348.71292114 C836.33261016 350.6411256 836.56352801 352.570651 836.79370117 354.50024414 C836.93108963 357.15963816 836.93108963 357.15963816 838.22338867 358.25537109 C840.65552371 372.65259271 840.54210354 387.57152157 840.48413086 402.1237793 C840.4733831 405.31952822 840.48412045 408.51471678 840.49682617 411.71044922 C840.5054738 424.96204637 840.03673105 438.11368525 838.22338867 451.25537109 C837.89338867 451.58537109 837.56338867 451.91537109 837.22338867 452.25537109 C836.87514314 454.45838186 836.58318704 456.67030899 836.31323242 458.88427734 C836.13158374 460.31111911 835.94857841 461.73778865 835.7644043 463.16430664 C835.66683838 463.92238617 835.56927246 464.6804657 835.46875 465.46151733 C832.26724915 489.96562969 827.56439125 515.87415556 817.75073242 538.67724609 C816.45206369 541.71965162 815.33287268 544.76239509 814.28466797 547.89794922 C808.83893516 564.1247219 801.41511443 579.44443923 793.21508789 594.44091797 C792.32602469 596.06758407 791.44781659 597.70017205 790.57104492 599.33349609 C789.14241968 601.98611591 787.68961502 604.62337461 786.22338867 607.25537109 C785.7515918 608.11259766 785.27979492 608.96982422 784.79370117 609.85302734 C776.16813791 625.10868774 766.10316333 639.53506414 755.22338867 653.25537109 C754.33381182 654.41985994 753.44717814 655.58660199 752.56323242 656.75537109 C752.11947266 657.34060547 751.67571289 657.92583984 751.21850586 658.52880859 C749.99414281 660.1454433 748.77083646 661.76287816 747.54760742 663.38037109 C745.26033553 666.20966876 742.79979257 668.69119696 740.22338867 671.25537109 C738.09523301 673.88201366 736.04430287 676.55685059 733.99291992 679.24365234 C733.40897461 679.90751953 732.8250293 680.57138672 732.22338867 681.25537109 C731.56338867 681.25537109 730.90338867 681.25537109 730.22338867 681.25537109 C730.22338867 681.91537109 730.22338867 682.57537109 730.22338867 683.25537109 C729.56338867 683.25537109 728.90338867 683.25537109 728.22338867 683.25537109 C727.99651367 683.83287109 727.76963867 684.41037109 727.53588867 685.00537109 C725.87612522 687.85067987 723.802722 689.19190443 721.22338867 691.25537109 C720.18336116 692.42609725 719.16460067 693.61586478 718.16088867 694.81787109 C715.01164909 698.50816946 711.61138748 701.80040859 708.03588867 705.06787109 C707.52469482 705.53588135 707.01350098 706.0038916 706.48681641 706.48608398 C699.00329918 713.25537109 699.00329918 713.25537109 696.22338867 713.25537109 C695.97717773 713.84705078 695.7309668 714.43873047 695.47729492 715.04833984 C694.01692099 717.61877995 692.53170658 718.81589102 690.16088867 720.56787109 C689.35522461 721.17115234 688.54956055 721.77443359 687.71948242 722.39599609 C686.89577148 723.00958984 686.07206055 723.62318359 685.22338867 724.25537109 C683.72145781 725.44042803 682.22141135 726.62787769 680.72338867 727.81787109 C676.37027405 731.20362691 671.84170045 734.24659354 667.22338867 737.25537109 C665.82677453 738.19170751 664.43095554 739.12923091 663.03588867 740.06787109 C653.9268472 746.1299858 644.76737842 752.06979231 635.27026367 757.50927734 C633.14474186 758.72736484 631.03094121 759.96603587 628.92651367 761.22021484 C621.43206363 765.65982704 613.80558005 769.3338705 605.78588867 772.72802734 C603.07849401 773.88876343 600.46068022 775.08932487 597.84838867 776.44287109 C593.43678304 778.71114763 588.84678002 780.4690608 584.22338867 782.25537109 C583.23338867 782.64724609 582.24338867 783.03912109 581.22338867 783.44287109 C569.3204256 788.11069975 557.34307493 792.09574823 544.96557617 795.28662109 C542.48513314 795.92873996 540.01085285 796.59519005 537.54370117 797.28662109 C530.19523711 799.33735525 522.93182195 800.9370988 515.41040039 802.17919922 C511.20209672 802.87946707 507.10783184 803.74953952 502.97338867 804.81787109 C480.32055045 810.16606899 455.37501641 809.686898 432.22338867 809.25537109 C431.06484375 809.23748535 429.90629883 809.21959961 428.71264648 809.20117188 C403.99284057 808.78255464 379.77346981 807.13203455 355.56274414 801.77148438 C353.19365307 801.24881077 350.82066809 800.74834345 348.44604492 800.25146484 C339.53848186 798.3633834 330.89054948 796.067821 322.22338867 793.25537109 C319.95327858 792.56548672 317.6824432 791.87798444 315.41088867 791.19287109 C311.30085115 789.92786553 307.25505415 788.59255769 303.24682617 787.03662109 C299.89455812 785.74230911 296.50898968 784.53932327 293.12963867 783.31787109 C292.17057617 782.96724609 291.21151367 782.61662109 290.22338867 782.25537109 C288.44834961 781.61921875 288.44834961 781.61921875 286.63745117 780.97021484 C268.44241447 774.11603749 251.08749888 764.86282784 234.22338867 755.25537109 C233.19858398 754.68947266 232.1737793 754.12357422 231.11791992 753.54052734 C230.18012695 752.904375 230.18012695 752.904375 229.22338867 752.25537109 C229.22338867 751.59537109 229.22338867 750.93537109 229.22338867 750.25537109 C228.69487305 750.17287109 228.16635742 750.09037109 227.62182617 750.00537109 C224.34539604 748.98081965 221.69091518 747.12855676 218.84838867 745.25537109 C214.64456037 742.49876237 211.33720205 740.34508712 206.22338867 740.25537109 C203.61315704 741.48864713 203.61315704 741.48864713 201.28588867 743.44287109 C190.92651367 751.25537109 190.92651367 751.25537109 187.22338867 751.25537109 C187.22338867 751.91537109 187.22338867 752.57537109 187.22338867 753.25537109 C183.69977779 755.13770762 180.17526702 757.01832084 176.64916992 758.89599609 C173.70606799 760.46338267 170.76644164 762.03704555 167.82885742 763.61474609 C160.06805247 767.77061593 152.30236532 771.74392046 144.22338867 775.25537109 C143.51698242 775.57763672 142.81057617 775.89990234 142.08276367 776.23193359 C134.90657828 779.50108472 127.56771868 782.38856832 120.22338867 785.25537109 C119.61793213 785.49634521 119.01247559 785.73731934 118.38867188 785.9855957 C112.54443337 788.25764576 106.5620911 789.97373248 100.53588867 791.69287109 C94.16863767 793.51980404 87.82436128 795.35774597 81.53588867 797.44287109 C68.9255102 801.36572581 55.54689373 803.28789581 42.44995117 804.76318359 C39.16830825 805.18985403 39.16830825 805.18985403 35.86401367 806.24365234 C0.00543353 816.20864404 -53.59651988 813.17326049 -89.46704102 804.76635742 C-93.97343645 803.76932934 -98.5376837 803.07625409 -103.08911133 802.31787109 C-112.01069669 800.79818633 -120.85618535 799.2634688 -129.44848633 796.34912109 C-133.01194818 795.17803035 -136.60005114 794.15916438 -140.21191406 793.1496582 C-147.62282572 791.07817921 -154.98583295 789.00913041 -162.17504883 786.24755859 C-165.37138043 785.02853723 -168.60507352 783.93281775 -171.83911133 782.81787109 C-176.88286595 781.02319453 -181.58514771 778.97160805 -186.31958008 776.48583984 C-188.9060221 775.19056284 -191.52337576 774.12853449 -194.21411133 773.06787109 C-202.2775571 769.77391193 -209.87301875 765.58151616 -217.53344727 761.45703125 C-219.52653315 760.38933766 -221.52717372 759.33907556 -223.53442383 758.29833984 C-229.55904663 755.14360237 -235.17775876 751.77256936 -240.65551758 747.73583984 C-242.6360541 746.35347642 -244.59002111 745.27181326 -246.77661133 744.25537109 C-246.77661133 743.59537109 -246.77661133 742.93537109 -246.77661133 742.25537109 C-251.82039999 740.66320739 -255.41484237 740.56983364 -260.20629883 742.98193359 C-263.26085048 744.90731848 -266.20299646 746.99074549 -269.1340332 749.09814453 C-271.3625274 750.66815977 -273.6775294 752.06149273 -276.02661133 753.44287109 C-276.81036133 753.90693359 -277.59411133 754.37099609 -278.40161133 754.84912109 C-279.18536133 755.31318359 -279.96911133 755.77724609 -280.77661133 756.25537109 C-281.64286133 756.78130859 -282.50911133 757.30724609 -283.40161133 757.84912109 C-284.26786133 758.37505859 -285.13411133 758.90099609 -286.02661133 759.44287109 C-286.79489258 759.91080078 -287.56317383 760.37873047 -288.35473633 760.86083984 C-291.10816795 762.44628354 -293.93347185 763.83734642 -296.77661133 765.25537109 C-298.4603261 766.18877798 -300.14396896 767.12232044 -301.82568359 768.05932617 C-308.47787507 771.73364132 -315.15005224 774.74422172 -322.32104492 777.2644043 C-326.3143184 778.66796026 -330.00439055 780.34437798 -333.77661133 782.25537109 C-343.18477143 786.14010468 -352.84333009 789.32362297 -362.52661133 792.44287109 C-363.5550415 792.77569092 -364.58347168 793.10851074 -365.64306641 793.45141602 C-371.64728226 795.36134676 -377.6659555 797.04909175 -383.78955078 798.53198242 C-385.77611287 799.01307629 -387.75915216 799.50896398 -389.73828125 800.01977539 C-452.25566865 816.15114102 -518.47232623 813.07372104 -580.77661133 798.13037109 C-581.46539368 797.96655945 -582.15417603 797.8027478 -582.86383057 797.63397217 C-590.77448333 795.73670082 -598.2867977 793.44637174 -605.77661133 790.25537109 C-607.62279385 789.60716657 -609.47586178 788.97774881 -611.33911133 788.38037109 C-616.39831455 786.72011577 -621.43722659 785.01061604 -626.46411133 783.25537109 C-627.15255127 783.01834473 -627.84099121 782.78131836 -628.55029297 782.53710938 C-633.75636474 780.71104824 -638.76554712 778.55945471 -643.77661133 776.25537109 C-644.54368408 775.90474609 -645.31075684 775.55412109 -646.10107422 775.19287109 C-684.46118017 757.52521666 -684.46118017 757.52521666 -699.77661133 746.25537109 C-699.77661133 745.59537109 -699.77661133 744.93537109 -699.77661133 744.25537109 C-700.45079102 744.01818359 -701.1249707 743.78099609 -701.81958008 743.53662109 C-705.49271131 741.94509263 -708.73115885 739.92023026 -712.08911133 737.75537109 C-712.73428711 737.35189453 -713.37946289 736.94841797 -714.04418945 736.53271484 C-715.65942395 735.49691367 -717.22334016 734.38196561 -718.77661133 733.25537109 C-718.77661133 732.59537109 -718.77661133 731.93537109 -718.77661133 731.25537109 C-719.46625977 731.02591797 -720.1559082 730.79646484 -720.86645508 730.56005859 C-724.41983816 728.96699826 -727.30400065 726.77632728 -730.33911133 724.38037109 C-730.90307617 723.94595703 -731.46704102 723.51154297 -732.0480957 723.06396484 C-735.17080371 720.63153966 -737.99926066 718.06765699 -740.77661133 715.25537109 C-742.17479363 714.1278895 -743.59217771 713.02385614 -745.02661133 711.94287109 C-751.26491346 707.14338659 -756.85394626 702.40870243 -761.77661133 696.25537109 C-762.92880524 695.23872941 -764.09775521 694.24097211 -765.27661133 693.25537109 C-770.7677869 688.56179644 -775.50974823 683.19297615 -780.34106445 677.83935547 C-781.62635397 676.42116527 -782.92706375 675.016986 -784.22973633 673.61474609 C-789.09120904 668.34531763 -793.41916118 662.82842069 -797.66333008 657.05224609 C-799.43007639 654.71400143 -801.24143753 652.54245853 -803.21411133 650.38037109 C-807.78642103 645.28008105 -811.62294198 639.63334634 -815.53442383 634.02392578 C-816.67178474 632.40461712 -817.83244628 630.80173918 -818.99536133 629.20068359 C-827.30978994 617.60265818 -834.40036902 605.10185814 -840.74406433 592.32719421 C-841.70747478 590.39409476 -842.68598349 588.46969274 -843.67114258 586.54760742 C-848.45208209 577.17297568 -852.78146433 567.67731771 -856.77661133 557.94287109 C-857.22700272 556.84860809 -857.22700272 556.84860809 -857.68649292 555.73223877 C-865.8256139 535.85229636 -871.59105236 515.68337079 -875.69458008 494.59130859 C-876.55299288 490.21745457 -877.6340142 485.98283075 -878.83911133 481.69287109 C-880.88028558 473.79369268 -881.92328875 465.77306412 -882.96411133 457.69287109 C-883.13112549 456.40243896 -883.29813965 455.11200684 -883.47021484 453.7824707 C-885.41726001 438.00669506 -886.01334373 422.38047881 -886.02661133 406.50537109 C-886.02795074 405.55181732 -886.02929016 404.59826355 -886.03067017 403.61581421 C-886.02667608 390.38367995 -885.62086883 377.25077792 -884.46411133 364.06787109 C-884.40525757 363.37995483 -884.34640381 362.69203857 -884.2857666 361.98327637 C-882.88098138 346.03573853 -879.80403843 330.56539352 -875.97973633 315.04370117 C-875.40146792 312.69228796 -874.83462533 310.33832108 -874.26879883 307.98388672 C-871.82928526 297.93665256 -868.99281965 288.08058041 -865.77661133 278.25537109 C-865.36668945 276.99213013 -865.36668945 276.99213013 -864.94848633 275.70336914 C-862.01096086 266.79640192 -858.55482801 258.22326009 -854.65917969 249.69628906 C-852.75305762 245.51432884 -851.04731252 241.34700125 -849.52661133 237.00537109 C-845.73349721 226.90731479 -840.05726285 217.62888531 -834.77661133 208.25537109 C-833.7439167 206.40258595 -832.71136202 204.5497228 -831.67895508 202.69677734 C-821.55759806 184.64382687 -810.24911819 167.9322674 -797.02661133 151.97802734 C-795.51121307 150.14429022 -794.011422 148.29755597 -792.52661133 146.43896484 C-788.24174891 141.09032582 -783.79438103 136.1422933 -778.88598633 131.36083984 C-776.95515329 129.43358242 -775.1698832 127.45598546 -773.40161133 125.38037109 C-770.38409657 121.87295394 -767.21326357 118.54673382 -763.96411133 115.25537109 C-763.24312256 114.51504639 -763.24312256 114.51504639 -762.50756836 113.75976562 C-761.3027973 112.55157314 -760.04347912 111.39828333 -758.77661133 110.25537109 C-758.11661133 110.25537109 -757.45661133 110.25537109 -756.77661133 110.25537109 C-756.51033936 109.6555542 -756.24406738 109.0557373 -755.96972656 108.43774414 C-754.74309382 106.19406293 -753.62015542 104.98309889 -751.68676758 103.33740234 C-751.072771 102.80969238 -750.45877441 102.28198242 -749.82617188 101.73828125 C-748.8425769 100.91142822 -748.8425769 100.91142822 -747.83911133 100.06787109 C-747.16468994 99.49343262 -746.49026855 98.91899414 -745.79541016 98.32714844 C-743.79552277 96.62882195 -741.78731934 94.9408627 -739.77661133 93.25537109 C-739.24197266 92.80371582 -738.70733398 92.35206055 -738.15649414 91.88671875 C-732.74329129 87.31921614 -727.22248336 83.03041921 -721.35864258 79.05615234 C-719.19770034 77.54905042 -717.10335166 75.9941192 -715.00708008 74.39990234 C-710.87838271 71.28925317 -706.61987752 68.43094711 -702.27661133 65.63037109 C-701.56891602 65.16630859 -700.8612207 64.70224609 -700.13208008 64.22412109 C-687.81878559 56.25537109 -687.81878559 56.25537109 -683.77661133 56.25537109 C-683.77661133 55.59537109 -683.77661133 54.93537109 -683.77661133 54.25537109 C-682.69561157 53.6960791 -682.69561157 53.6960791 -681.59277344 53.12548828 C-678.29909681 51.42030212 -675.00659655 49.71285649 -671.71411133 48.00537109 C-670.01351562 47.12558594 -670.01351562 47.12558594 -668.27856445 46.22802734 C-661.46365927 42.70326728 -661.46365927 42.70326728 -654.76879883 38.95849609 C-652.19001156 37.49067462 -649.72941055 36.31061304 -646.96411133 35.25537109 C-646.10946289 34.92408203 -645.25481445 34.59279297 -644.37426758 34.25146484 C-643.51704102 33.92275391 -642.65981445 33.59404297 -641.77661133 33.25537109 C-640.15036637 32.61267908 -638.5253582 31.96684858 -636.90161133 31.31787109 C-636.12092285 31.00664307 -635.34023438 30.69541504 -634.53588867 30.37475586 C-631.74034104 29.24065695 -628.96908833 28.05708469 -626.19458008 26.87255859 C-620.20431155 24.3761554 -614.15093818 22.26912022 -607.96411133 20.31787109 C-606.88734131 19.97651123 -605.81057129 19.63515137 -604.70117188 19.28344727 C-594.71851088 16.16272509 -584.66373983 13.42219054 -574.50610352 10.93457031 C-571.92310275 10.29182361 -569.3544148 9.60815263 -566.78442383 8.91552734 C-550.67873454 4.74554173 -534.21454227 3.35413028 -517.68824768 1.85092163 C-514.70864605 1.57426002 -511.77682035 1.2554089 -508.83105469 0.72265625 C-504.8056306 0.10682524 -500.84777365 0.03484236 -496.78051758 -0.01806641 C-495.89513809 -0.03050385 -495.00975861 -0.04294128 -494.09754944 -0.05575562 C-474.06721466 -0.28050507 -454.32530691 0.35394 -434.40161133 2.50537109 C-433.42676788 2.60779114 -432.45192444 2.71021118 -431.44754028 2.81573486 C-419.56435444 4.09021343 -408.30965002 6.1342241 -396.77661133 9.25537109 C-393.39101405 10.03731233 -389.99372583 10.74906745 -386.58911133 11.44287109 C-385.79698242 11.60722656 -385.00485352 11.77158203 -384.1887207 11.94091797 C-380.38776735 12.72787143 -376.58397757 13.50000184 -372.77661133 14.25537109 C-372.77661133 14.91537109 -372.77661133 15.57537109 -372.77661133 16.25537109 C-371.74407227 16.33142578 -370.7115332 16.40748047 -369.64770508 16.48583984 C-363.15341388 17.30173429 -357.0345872 19.53523465 -350.83911133 21.56787109 C-349.61514648 21.95910156 -348.39118164 22.35033203 -347.13012695 22.75341797 C-340.48811293 24.90787437 -334.08146448 27.25505146 -327.77661133 30.25537109 C-323.04996623 32.41426504 -318.3075026 34.44670196 -313.45800781 36.31811523 C-305.54431868 39.39015914 -298.15505681 43.0324872 -290.77661133 47.25537109 C-289.31674805 48.08875 -289.31674805 48.08875 -287.82739258 48.93896484 C-284.79782693 50.69036929 -281.78703365 52.47128032 -278.77661133 54.25537109 C-277.49690553 54.99927734 -276.21694544 55.74274627 -274.93676758 56.48583984 C-263.74511477 63.03664879 -263.74511477 63.03664879 -259.71411133 66.88037109 C-257.029588 69.59305823 -257.029588 69.59305823 -253.88208008 69.09912109 C-250.633861 68.2165861 -248.80567192 67.16423883 -246.15161133 65.13037109 C-224.48614002 49.25537109 -224.48614002 49.25537109 -216.77661133 49.25537109 C-216.77661133 48.59537109 -216.77661133 47.93537109 -216.77661133 47.25537109 C-188.26069164 33.08268813 -158.84686775 19.72655321 -127.53051758 13.14208984 C-124.73165416 12.48096394 -122.21767217 11.73610415 -119.52661133 10.77880859 C-114.18753964 8.94984537 -108.77776304 8.06517252 -103.21411133 7.19287109 C-102.16723145 7.02295654 -101.12035156 6.85304199 -100.04174805 6.67797852 C-92.58919108 5.48732994 -85.12887395 4.48072523 -77.62817383 3.64990234 C-74.83658505 3.41886291 -74.83658505 3.41886291 -72.77661133 2.25537109 C-69.87891749 1.87021553 -66.99712338 1.54006384 -64.08911133 1.25537109 C-63.20860107 1.16852051 -62.32809082 1.08166992 -61.42089844 0.9921875 C-54.56740814 0.35171931 -47.71538917 -0.06855297 -40.83911133 -0.36962891 C-39.47556519 -0.42957031 -39.47556519 -0.42957031 -38.08447266 -0.49072266 C-25.35657306 -0.98603413 -12.71251888 -0.66343342 0 0 Z " fill="#848D96" transform="translate(1041.776611328125,618.74462890625)"/>
<path d="M0 0 C0.88537949 -0.01243744 1.77075897 -0.02487488 2.68296814 -0.03768921 C22.71330292 -0.26243867 42.45521067 0.3720064 62.37890625 2.5234375 C63.35374969 2.62585754 64.32859314 2.72827759 65.33297729 2.83380127 C77.21616314 4.10827984 88.47086755 6.15229051 100.00390625 9.2734375 C103.38950353 10.05537874 106.78679175 10.76713386 110.19140625 11.4609375 C110.98353516 11.62529297 111.77566406 11.78964844 112.59179688 11.95898438 C116.39275023 12.74593784 120.19654 13.51806824 124.00390625 14.2734375 C124.00390625 14.9334375 124.00390625 15.5934375 124.00390625 16.2734375 C125.03644531 16.34949219 126.06898438 16.42554688 127.1328125 16.50390625 C133.6271037 17.3198007 139.74593038 19.55330106 145.94140625 21.5859375 C147.16537109 21.97716797 148.38933594 22.36839844 149.65039062 22.77148438 C156.29240464 24.92594078 162.69905309 27.27311786 169.00390625 30.2734375 C173.73055135 32.43233145 178.47301498 34.46476836 183.32250977 36.33618164 C191.2361989 39.40822555 198.62546077 43.05055361 206.00390625 47.2734375 C207.46376953 48.10681641 207.46376953 48.10681641 208.953125 48.95703125 C211.98269065 50.70843569 214.99348392 52.48934672 218.00390625 54.2734375 C219.28361205 55.01734374 220.56357213 55.76081268 221.84375 56.50390625 C223.16886277 57.27972501 224.49308229 58.05707147 225.81640625 58.8359375 C226.462146 59.21524414 227.10788574 59.59455078 227.77319336 59.98535156 C231.17059879 62.02458933 234.11923676 64.12137117 236.94140625 66.8984375 C240.22102352 69.44181416 240.59886194 69.6020712 244.44140625 69.1484375 C245.61703125 68.8596875 246.79265625 68.5709375 248.00390625 68.2734375 C244.75784331 71.75250991 241.11440792 74.46584811 237.25390625 77.2109375 C228.29922717 83.67234429 219.63052386 90.54099149 211.27783203 97.76660156 C207.20541714 101.2734375 207.20541714 101.2734375 205.00390625 101.2734375 C204.74279053 101.87212646 204.4816748 102.47081543 204.21264648 103.08764648 C202.91826867 105.42829778 201.73020519 106.57169677 199.6640625 108.24609375 C194.18511142 112.88669483 189.16748506 117.96003188 184.10375977 123.04321289 C182.44463305 124.70770027 180.78022574 126.36677197 179.11523438 128.02539062 C173.53700752 133.59971181 168.06346143 139.21694299 163.00390625 145.2734375 C162.20984375 146.22089844 161.41578125 147.16835938 160.59765625 148.14453125 C147.67601828 163.98318078 135.90386973 180.23252682 125.46484375 197.82421875 C124.50459898 199.43404087 123.53096279 201.03596399 122.54296875 202.62890625 C119.23442285 207.99435237 116.32420289 213.50087783 113.5480957 219.15551758 C111.87221263 222.56378465 110.13026499 225.90899689 108.25390625 229.2109375 C105.11857603 234.77920253 102.89278019 240.56143409 100.62890625 246.5234375 C99.09905691 250.54384514 97.48595002 254.45691516 95.62890625 258.3359375 C92.11070224 265.89397199 89.5758738 273.83582863 86.89770508 281.7199707 C86.29252703 283.44888554 85.66125894 285.16884999 85.0065918 286.87963867 C82.28736954 293.99956276 80.51386106 301.13533392 78.94140625 308.5859375 C78.68464111 309.77711182 78.42787598 310.96828613 78.16333008 312.19555664 C77.66135742 314.52656526 77.16212855 316.8581669 76.66601562 319.19042969 C76.1259812 321.70501475 75.56807382 324.21313192 74.98828125 326.71875 C73.56541776 332.95424 72.61657692 338.96454513 72.3125 345.359375 C72.00390625 348.2734375 72.00390625 348.2734375 71.05371094 351.84350586 C69.85799959 356.55356153 69.32413129 361.23230207 68.8984375 366.06640625 C68.81455276 367.01331833 68.73066803 367.96023041 68.64424133 368.93583679 C67.75373494 379.96769729 67.66752354 390.99596944 67.68823242 402.05834961 C67.69139409 405.57241866 67.66780911 409.08564324 67.64257812 412.59960938 C67.59150959 430.93801482 69.15570483 448.81764251 72.56028748 466.84158325 C72.97407604 469.10991261 73.32622609 471.37670942 73.64453125 473.66015625 C76.1032278 491.20492916 80.43356447 508.45963833 86.00390625 525.2734375 C86.47156115 526.71347447 86.93899204 528.15358419 87.40625 529.59375 C91.44922344 541.97144866 95.84979688 554.05731513 101.41796875 565.84375 C102.51933638 568.22552532 103.57631684 570.59779887 104.58984375 573.015625 C109.01078513 583.53923018 114.26408537 593.41240907 120.00390625 603.2734375 C120.71836914 604.50465332 120.71836914 604.50465332 121.44726562 605.76074219 C135.91442416 630.57660132 152.47626875 655.34371126 173.171875 675.44921875 C176.29861739 678.56262748 179.13702585 681.92228676 182.00390625 685.2734375 C183.27175098 686.7551666 184.5425258 688.23439425 185.81640625 689.7109375 C186.37972656 690.36964844 186.94304688 691.02835938 187.5234375 691.70703125 C188.93859833 693.38363736 188.93859833 693.38363736 191.00390625 694.2734375 C191.00390625 694.9334375 191.00390625 695.5934375 191.00390625 696.2734375 C191.83535156 696.62535156 191.83535156 696.62535156 192.68359375 696.984375 C195.5880835 698.59798042 197.7101063 700.62067545 200.12890625 702.8984375 C204.55343957 706.99763749 209.10612746 710.80505554 213.8515625 714.5234375 C216.41390669 716.60679539 218.6706151 718.94014635 221.00390625 721.2734375 C222.65462021 722.29955699 224.32360631 723.29651893 226.00390625 724.2734375 C229.91362061 727.04633904 233.6670064 729.82180184 237.00390625 733.2734375 C237.83921875 734.046875 237.83921875 734.046875 238.69140625 734.8359375 C240.00390625 736.2734375 240.00390625 736.2734375 240.00390625 738.2734375 C240.54015625 738.0259375 241.07640625 737.7784375 241.62890625 737.5234375 C245.29145489 737.13790606 247.16148004 739.14161784 250.00390625 741.2734375 C249.01390625 741.6034375 248.02390625 741.9334375 247.00390625 742.2734375 C246.67390625 741.9434375 246.34390625 741.6134375 246.00390625 741.2734375 C240.62924903 740.62148204 237.51205364 742.4112107 233.25390625 745.3984375 C232.01511016 746.2316404 230.77552259 747.06366773 229.53515625 747.89453125 C228.93316406 748.30300293 228.33117187 748.71147461 227.7109375 749.13232422 C223.90876931 751.673991 219.93786435 753.9441202 216.00390625 756.2734375 C215.13765625 756.799375 214.27140625 757.3253125 213.37890625 757.8671875 C212.51265625 758.393125 211.64640625 758.9190625 210.75390625 759.4609375 C209.985625 759.92886719 209.21734375 760.39679687 208.42578125 760.87890625 C205.67234963 762.46434994 202.84704573 763.85541282 200.00390625 765.2734375 C198.32019147 766.20684439 196.63654862 767.14038684 194.95483398 768.07739258 C188.3026425 771.75170773 181.63046534 774.76228813 174.45947266 777.2824707 C170.46619918 778.68602667 166.77612703 780.36244439 163.00390625 782.2734375 C153.59574615 786.15817109 143.93718749 789.34168937 134.25390625 792.4609375 C133.22547607 792.79375732 132.1970459 793.12657715 131.13745117 793.46948242 C125.13323532 795.37941317 119.11456208 797.06715816 112.9909668 798.55004883 C111.00440471 799.0311427 109.02136541 799.52703039 107.04223633 800.0378418 C44.52484893 816.16920743 -21.69180865 813.09178745 -83.99609375 798.1484375 C-84.6848761 797.98462585 -85.37365845 797.82081421 -86.08331299 797.65203857 C-93.99396576 795.75476723 -101.50628012 793.46443815 -108.99609375 790.2734375 C-110.84227628 789.62523297 -112.6953442 788.99581522 -114.55859375 788.3984375 C-119.61779697 786.73818218 -124.65670902 785.02868245 -129.68359375 783.2734375 C-130.37203369 783.03641113 -131.06047363 782.79938477 -131.76977539 782.55517578 C-136.97584716 780.72911465 -141.98502954 778.57752112 -146.99609375 776.2734375 C-147.7631665 775.9228125 -148.53023926 775.5721875 -149.32055664 775.2109375 C-187.6806626 757.54328307 -187.6806626 757.54328307 -202.99609375 746.2734375 C-202.99609375 745.6134375 -202.99609375 744.9534375 -202.99609375 744.2734375 C-203.67027344 744.03625 -204.34445312 743.7990625 -205.0390625 743.5546875 C-208.71219374 741.96315904 -211.95064127 739.93829667 -215.30859375 737.7734375 C-215.95376953 737.36996094 -216.59894531 736.96648438 -217.26367188 736.55078125 C-218.87890637 735.51498008 -220.44282258 734.40003202 -221.99609375 733.2734375 C-221.99609375 732.6134375 -221.99609375 731.9534375 -221.99609375 731.2734375 C-222.68574219 731.04398438 -223.37539063 730.81453125 -224.0859375 730.578125 C-227.63932058 728.98506467 -230.52348307 726.79439369 -233.55859375 724.3984375 C-234.12255859 723.96402344 -234.68652344 723.52960937 -235.26757812 723.08203125 C-238.39028613 720.64960607 -241.21874309 718.08572339 -243.99609375 715.2734375 C-245.39427605 714.14595591 -246.81166013 713.04192255 -248.24609375 711.9609375 C-254.48439588 707.16145299 -260.07342868 702.42676883 -264.99609375 696.2734375 C-266.14828766 695.25679582 -267.31723763 694.25903852 -268.49609375 693.2734375 C-273.98726933 688.57986285 -278.72923065 683.21104256 -283.56054688 677.85742188 C-284.84583639 676.43923167 -286.14654617 675.03505241 -287.44921875 673.6328125 C-292.31069146 668.36338404 -296.6386436 662.84648709 -300.8828125 657.0703125 C-302.64955882 654.73206784 -304.46091996 652.56052494 -306.43359375 650.3984375 C-311.00590346 645.29814746 -314.8424244 639.65141275 -318.75390625 634.04199219 C-319.89126717 632.42268352 -321.0519287 630.81980558 -322.21484375 629.21875 C-330.52927236 617.62072459 -337.61985144 605.11992455 -343.96354675 592.34526062 C-344.9269572 590.41216116 -345.90546591 588.48775915 -346.890625 586.56567383 C-351.67156451 577.19104209 -356.00094675 567.69538412 -359.99609375 557.9609375 C-360.44648514 556.8666745 -360.44648514 556.8666745 -360.90597534 555.75030518 C-369.04509632 535.87036277 -374.81053478 515.7014372 -378.9140625 494.609375 C-379.7724753 490.23552098 -380.85349662 486.00089716 -382.05859375 481.7109375 C-384.09976801 473.81175908 -385.14277118 465.79113053 -386.18359375 457.7109375 C-386.35060791 456.42050537 -386.51762207 455.13007324 -386.68969727 453.80053711 C-388.63674243 438.02476146 -389.23282616 422.39854522 -389.24609375 406.5234375 C-389.24743317 405.56988373 -389.24877258 404.61632996 -389.25015259 403.63388062 C-389.2461585 390.40174635 -388.84035125 377.26884433 -387.68359375 364.0859375 C-387.62473999 363.39802124 -387.56588623 362.71010498 -387.50524902 362.00134277 C-386.1004638 346.05380494 -383.02352085 330.58345993 -379.19921875 315.06176758 C-378.62095034 312.71035437 -378.05410775 310.35638748 -377.48828125 308.00195312 C-375.04876768 297.95471897 -372.21230207 288.09864682 -368.99609375 278.2734375 C-368.58617187 277.01019653 -368.58617187 277.01019653 -368.16796875 275.72143555 C-365.23044329 266.81446833 -361.77431043 258.24132649 -357.87866211 249.71435547 C-355.97254005 245.53239525 -354.26679494 241.36506766 -352.74609375 237.0234375 C-348.95297964 226.9253812 -343.27674527 217.64695172 -337.99609375 208.2734375 C-336.96339912 206.42065236 -335.93084444 204.56778921 -334.8984375 202.71484375 C-324.77708048 184.66189327 -313.46860062 167.9503338 -300.24609375 151.99609375 C-298.7306955 150.16235663 -297.23090442 148.31562238 -295.74609375 146.45703125 C-291.46123133 141.10839222 -287.01386345 136.16035971 -282.10546875 131.37890625 C-280.17463571 129.45164883 -278.38936562 127.47405186 -276.62109375 125.3984375 C-273.60357899 121.89102035 -270.43274599 118.56480023 -267.18359375 115.2734375 C-266.46260498 114.53311279 -266.46260498 114.53311279 -265.72705078 113.77783203 C-264.52227973 112.56963955 -263.26296154 111.41634974 -261.99609375 110.2734375 C-261.33609375 110.2734375 -260.67609375 110.2734375 -259.99609375 110.2734375 C-259.72982178 109.67362061 -259.4635498 109.07380371 -259.18920898 108.45581055 C-257.96257624 106.21212934 -256.83963785 105.0011653 -254.90625 103.35546875 C-254.29225342 102.82775879 -253.67825684 102.30004883 -253.0456543 101.75634766 C-252.06205933 100.92949463 -252.06205933 100.92949463 -251.05859375 100.0859375 C-250.38417236 99.51149902 -249.70975098 98.93706055 -249.01489258 98.34521484 C-247.01500519 96.64688836 -245.00680176 94.95892911 -242.99609375 93.2734375 C-242.46145508 92.82178223 -241.92681641 92.37012695 -241.37597656 91.90478516 C-235.96277371 87.33728255 -230.44196578 83.04848562 -224.578125 79.07421875 C-222.41718276 77.56711682 -220.32283408 76.0121856 -218.2265625 74.41796875 C-214.09786513 71.30731958 -209.83935994 68.44901351 -205.49609375 65.6484375 C-204.78839844 65.184375 -204.08070313 64.7203125 -203.3515625 64.2421875 C-191.03826801 56.2734375 -191.03826801 56.2734375 -186.99609375 56.2734375 C-186.99609375 55.6134375 -186.99609375 54.9534375 -186.99609375 54.2734375 C-185.91509399 53.71414551 -185.91509399 53.71414551 -184.81225586 53.14355469 C-181.51857924 51.43836853 -178.22607897 49.73092289 -174.93359375 48.0234375 C-173.23299805 47.14365234 -173.23299805 47.14365234 -171.49804688 46.24609375 C-164.68314169 42.72133369 -164.68314169 42.72133369 -157.98828125 38.9765625 C-155.40949398 37.50874102 -152.94889297 36.32867945 -150.18359375 35.2734375 C-149.32894531 34.94214844 -148.47429687 34.61085938 -147.59375 34.26953125 C-146.73652344 33.94082031 -145.87929688 33.61210938 -144.99609375 33.2734375 C-143.36984879 32.63074549 -141.74484063 31.98491498 -140.12109375 31.3359375 C-139.34040527 31.02470947 -138.5597168 30.71348145 -137.75537109 30.39282227 C-134.95982346 29.25872335 -132.18857075 28.07515109 -129.4140625 26.890625 C-123.42379397 24.39422181 -117.3704206 22.28718663 -111.18359375 20.3359375 C-110.10682373 19.99457764 -109.03005371 19.65321777 -107.9206543 19.30151367 C-97.9379933 16.1807915 -87.88322225 13.44025695 -77.72558594 10.95263672 C-75.14258517 10.30989002 -72.57389722 9.62621904 -70.00390625 8.93359375 C-53.89821697 4.76360813 -37.4340247 3.37219669 -20.9077301 1.86898804 C-17.92812847 1.59232643 -14.99630277 1.2734753 -12.05053711 0.74072266 C-8.02511302 0.12489165 -4.06725607 0.05290877 0 0 Z " fill="#DBDCDB" transform="translate(544.99609375,618.7265625)"/>
<path d="M0 0 C0.87575684 0.15758789 1.75151367 0.31517578 2.65380859 0.47753906 C29.67450827 5.35567986 29.67450827 5.35567986 40.40234375 9.1328125 C43.13779907 10.0460021 45.8978769 10.84603426 48.6706543 11.63745117 C56.00424243 13.73479218 63.23794644 16.04194557 70.4375 18.5625 C71.24098877 18.84319336 72.04447754 19.12388672 72.87231445 19.41308594 C92.24266525 26.27429011 111.09085249 34.93008788 129 45 C129.5882959 45.32516602 130.1765918 45.65033203 130.78271484 45.98535156 C138.33597186 50.16444988 138.33597186 50.16444988 141 52 C141 52.66 141 53.32 141 54 C141.886875 54.268125 142.77375 54.53625 143.6875 54.8125 C146.7909666 55.9250635 149.31110685 57.10195778 152 59 C152 59.66 152 60.32 152 61 C152.84175781 61.22558594 153.68351562 61.45117188 154.55078125 61.68359375 C158.6644478 63.2535888 161.70469912 65.41600437 165.1875 68.0625 C165.84242432 68.55129639 166.49734863 69.04009277 167.17211914 69.54370117 C172.0750768 73.22914987 176.83947325 77.0599567 181.546875 80.9921875 C184.4860219 83.39779499 187.53094138 85.62396879 190.63671875 87.80859375 C191.08660156 88.20175781 191.53648437 88.59492187 192 89 C192 89.66 192 90.32 192 91 C192.58523438 91.26683594 193.17046875 91.53367187 193.7734375 91.80859375 C196.04730176 93.02531059 197.71165914 94.34049323 199.625 96.0625 C200.32238281 96.68898438 201.01976562 97.31546875 201.73828125 97.9609375 C202.48464844 98.63382813 203.23101563 99.30671875 204 100 C204.77730469 100.67289063 205.55460937 101.34578125 206.35546875 102.0390625 C212.55062964 107.45613482 218.11261557 113.31354984 223.59130859 119.43408203 C225.48725203 121.54163509 227.40848549 123.62530518 229.33032227 125.70922852 C231.56228238 128.13156734 233.78154701 130.56528273 236 133 C236.61359375 133.67289063 237.2271875 134.34578125 237.859375 135.0390625 C243.1146277 140.91994053 247.90989487 147.16909067 252.74560547 153.39453125 C253.78921118 154.73021656 254.84783124 156.05415418 255.91015625 157.375 C263.81228851 167.23865445 270.52352858 178.03904008 277.0703125 188.83203125 C278.3578375 190.94576156 279.6652783 193.04748721 280.9921875 195.13671875 C285.84839927 202.81784748 290.02211045 210.67209938 293.95703125 218.84912109 C295.01478054 221.03048141 296.09929932 223.19697362 297.1875 225.36328125 C303.03244938 237.15637114 307.52481975 249.27865107 311.82397461 261.70776367 C312.66724316 264.06846045 313.53462924 266.40457171 314.44360352 268.73950195 C318.15610151 278.29501358 321.1000642 287.86335444 323.5625 297.8125 C323.75287842 298.56882721 323.94325684 299.32515442 324.1394043 300.10440063 C327.54061076 313.71685332 329.82064401 327.38258412 331.59204102 341.29418945 C331.68300552 342.00809845 331.77397003 342.72200745 331.86769104 343.45755005 C332.10922149 345.3857545 332.34013933 347.31527991 332.5703125 349.24487305 C332.70770095 351.90426707 332.70770095 351.90426707 334 353 C336.43213504 367.39722162 336.31871487 382.31615048 336.26074219 396.8684082 C336.24999443 400.06415713 336.26073178 403.25934569 336.2734375 406.45507812 C336.28208513 419.70667527 335.81334238 432.85831416 334 446 C333.67 446.33 333.34 446.66 333 447 C332.65175447 449.20301077 332.35979837 451.41493789 332.08984375 453.62890625 C331.90819507 455.05574802 331.72518974 456.48241756 331.54101562 457.90893555 C331.44344971 458.66701508 331.34588379 459.4250946 331.24536133 460.20614624 C328.04386047 484.7102586 323.34100258 510.61878447 313.52734375 533.421875 C312.22867502 536.46428052 311.10948401 539.507024 310.0612793 542.64257812 C304.61554649 558.86935081 297.19172575 574.18906814 288.99169922 589.18554688 C288.10263602 590.81221298 287.22442791 592.44480095 286.34765625 594.078125 C284.91903101 596.73074481 283.46622635 599.36800352 282 602 C281.52820312 602.85722656 281.05640625 603.71445313 280.5703125 604.59765625 C271.94474924 619.85331665 261.87977466 634.27969304 251 648 C250.11042315 649.16448885 249.22378946 650.33123089 248.33984375 651.5 C247.89608398 652.08523438 247.45232422 652.67046875 246.99511719 653.2734375 C245.77075414 654.89007221 244.54744778 656.50750706 243.32421875 658.125 C241.03694686 660.95429767 238.5764039 663.43582587 236 666 C233.87184434 668.62664257 231.8209142 671.30147949 229.76953125 673.98828125 C229.18558594 674.65214844 228.60164063 675.31601563 228 676 C227.34 676 226.68 676 226 676 C226 676.66 226 677.32 226 678 C225.34 678 224.68 678 224 678 C223.773125 678.5775 223.54625 679.155 223.3125 679.75 C221.65273655 682.59530878 219.57933333 683.93653334 217 686 C215.95997249 687.17072615 214.94121199 688.36049369 213.9375 689.5625 C210.78826042 693.25279837 207.38799881 696.54503749 203.8125 699.8125 C203.30130615 700.28051025 202.7901123 700.74852051 202.26342773 701.23071289 C194.77991051 708 194.77991051 708 192 708 C191.75378906 708.59167969 191.50757813 709.18335938 191.25390625 709.79296875 C189.79353232 712.36340885 188.30831791 713.56051992 185.9375 715.3125 C185.13183594 715.91578125 184.32617188 716.5190625 183.49609375 717.140625 C182.67238281 717.75421875 181.84867188 718.3678125 181 719 C179.49806914 720.18505694 177.99802268 721.37250659 176.5 722.5625 C172.14688537 725.94825582 167.61831178 728.99122245 163 732 C161.60338586 732.93633641 160.20756686 733.87385982 158.8125 734.8125 C149.70345853 740.87461471 140.54398974 746.81442122 131.046875 752.25390625 C128.92135319 753.47199375 126.80755253 754.71066478 124.703125 755.96484375 C117.20867495 760.40445595 109.58219138 764.0784994 101.5625 767.47265625 C98.85510534 768.63339234 96.23729155 769.83395377 93.625 771.1875 C89.21339437 773.45577653 84.62339135 775.21368971 80 777 C79.01 777.391875 78.02 777.78375 77 778.1875 C65.09703693 782.85532865 53.11968626 786.84037714 40.7421875 790.03125 C38.26174447 790.67336886 35.78746418 791.33981896 33.3203125 792.03125 C25.97184843 794.08198416 18.70843328 795.68172771 11.18701172 796.92382812 C6.97870805 797.62409598 2.88444317 798.49416843 -1.25 799.5625 C-23.90283822 804.9106979 -48.84837226 804.4315269 -72 804 C-73.15854492 803.98211426 -74.31708984 803.96422852 -75.51074219 803.94580078 C-100.2305481 803.52718355 -124.44991887 801.87666345 -148.66064453 796.51611328 C-151.0297356 795.99343967 -153.40272058 795.49297236 -155.77734375 794.99609375 C-164.68490681 793.10801231 -173.33283919 790.81244991 -182 788 C-184.27011009 787.31011563 -186.54094547 786.62261335 -188.8125 785.9375 C-192.92253753 784.67249444 -196.96833453 783.3371866 -200.9765625 781.78125 C-204.32883055 780.48693801 -207.71439899 779.28395217 -211.09375 778.0625 C-212.0528125 777.711875 -213.011875 777.36125 -214 777 C-215.18335938 776.57589844 -216.36671875 776.15179687 -217.5859375 775.71484375 C-235.78097421 768.86066639 -253.1358898 759.60745675 -270 750 C-271.02480469 749.43410156 -272.04960938 748.86820313 -273.10546875 748.28515625 C-274.04326172 747.64900391 -274.04326172 747.64900391 -275 747 C-275 746.34 -275 745.68 -275 745 C-275.5465625 744.90332031 -276.093125 744.80664062 -276.65625 744.70703125 C-279.62997275 743.80995822 -281.88718062 742.36358056 -284.5 740.6875 C-285.4384375 740.09324219 -286.376875 739.49898437 -287.34375 738.88671875 C-289.85070772 737.10604143 -291.90313278 735.24028503 -294 733 C-292.47502449 728.59790404 -289.03895797 726.60004943 -285.375 724.0625 C-273.54291306 715.61943104 -262.36173867 706.47374788 -251.73828125 696.5546875 C-249.12978075 694.12107933 -246.48009136 691.74346053 -243.8125 689.375 C-237.0888755 683.33020297 -230.74470284 677.00904377 -224.86328125 670.140625 C-222.71113223 667.66813514 -220.48019281 665.27728643 -218.25 662.875 C-212.47010509 656.51973093 -207.18106452 649.84875207 -202 643 C-201.50661133 642.35240723 -201.01322266 641.70481445 -200.50488281 641.03759766 C-174.09910996 606.1701666 -154.55191286 567.11882536 -140 526 C-139.72349609 525.23187988 -139.44699219 524.46375977 -139.16210938 523.67236328 C-131.00296206 500.73896251 -126.27825429 476.38700926 -123.0625 452.3125 C-122.96081512 451.55616272 -122.85913025 450.79982544 -122.75436401 450.02056885 C-115.26998448 393.43844324 -120.28737242 334.28435602 -138 280 C-138.20234253 279.37957825 -138.40468506 278.75915649 -138.61315918 278.11993408 C-142.850283 265.16819592 -147.14420608 252.32709559 -153 240 C-153.41709229 239.10192627 -153.83418457 238.20385254 -154.26391602 237.27856445 C-163.33460276 217.76767135 -173.55547675 199.21195722 -185 181 C-185.63035156 179.99066406 -186.26070312 178.98132813 -186.91015625 177.94140625 C-196.93958409 162.40130377 -208.6544417 147.75672068 -221 134 C-221.47856445 133.46503906 -221.95712891 132.93007813 -222.45019531 132.37890625 C-232.67068335 121.0061417 -243.28947623 109.85036837 -255 100 C-256.03501253 99.1028972 -257.06874562 98.20431725 -258.1015625 97.3046875 C-265.66898576 90.73199267 -273.42480416 84.46255845 -281.33056641 78.30371094 C-284.0261866 76.19862 -286.70620301 74.07663818 -289.375 71.9375 C-290.26960938 71.22464844 -291.16421875 70.51179687 -292.0859375 69.77734375 C-292.71757813 69.19082031 -293.34921875 68.60429688 -294 68 C-294 67.34 -294 66.68 -294 66 C-292.42700195 64.8425293 -292.42700195 64.8425293 -290.23828125 63.57421875 C-289.44873047 63.10693359 -288.65917969 62.63964844 -287.84570312 62.15820312 C-286.17659704 61.18916929 -284.50733009 60.22041249 -282.83789062 59.25195312 C-278.24852874 56.53549682 -274.7808959 53.78693567 -271 50 C-268.27937655 48.20154829 -265.43680529 46.66258164 -262.5625 45.125 C-261.76626221 44.69155273 -260.97002441 44.25810547 -260.1496582 43.81152344 C-253.1808216 40.04141702 -246.14045051 36.43518128 -239 33 C-237.88882812 32.46503906 -236.77765625 31.93007813 -235.6328125 31.37890625 C-229.68988488 28.57524275 -223.74269917 26.09291527 -217.5390625 23.9296875 C-215.1652104 23.06049242 -212.91241072 22.07300357 -210.625 21 C-205.90316482 18.83829808 -201.0195731 17.40592487 -196.046875 15.93359375 C-193.69282257 15.21228794 -191.46098477 14.43051921 -189.1875 13.5 C-184.5096583 11.6629935 -179.60344366 10.59442264 -174.72143555 9.4453125 C-171.93092996 8.77973075 -169.25505677 8.10693244 -166.60546875 6.99609375 C-162.67855976 5.49480171 -158.62822236 4.86945837 -154.5 4.125 C-152.60669239 3.77646754 -150.71346539 3.42749689 -148.8203125 3.078125 C-147.85383789 2.90087891 -146.88736328 2.72363281 -145.89160156 2.54101562 C-143.12837942 2.02401965 -140.37252241 1.47922484 -137.6171875 0.921875 C-93.30636463 -7.98802855 -44.47769543 -8.23355401 0 0 Z " fill="#414B51" transform="translate(1546,624)"/>
<path d="M0 0 C3.4168904 1.17274916 6.36026623 2.87369961 9.4375 4.75 C10.29093994 5.24443604 11.14437988 5.73887207 12.02368164 6.24829102 C14.69827511 7.80706105 17.3503177 9.3993136 20 11 C21.666328 11.99405751 23.33298831 12.9875582 25 13.98046875 C28.31427194 15.96129992 31.61952331 17.95640702 34.921875 19.95703125 C40.12967894 23.09726834 45.40029171 26.12088247 50.6875 29.125 C56.92078605 32.66728644 63.13892124 36.22952078 69.3125 39.875 C82.96076511 47.93250826 96.62893422 55.95776681 110.40307617 63.79858398 C113.81957159 65.74347411 117.23097238 67.69718866 120.64160156 69.65234375 C122.18021909 70.53155377 123.72113981 71.40674897 125.26464844 72.27734375 C142.1059494 81.78808295 142.1059494 81.78808295 146 91 C146.8302567 96.6766388 146.44731964 102.08989423 143.47387695 107.07519531 C138.38506873 113.72090743 128.62403828 117.54712124 121.4375 121.5 C112.85887488 126.25920024 104.33521018 131.09580253 95.875 136.0625 C88.12158118 140.61194833 80.33618739 145.09461117 72.5 149.5 C61.62178022 155.61975361 50.83752472 161.89303972 40.06884766 168.203125 C34.79994234 171.28818014 29.52460227 174.36219894 24.25 177.4375 C22.35934596 178.5403148 20.46871999 179.64317772 18.578125 180.74609375 C17.67513672 181.27187012 16.77214844 181.79764648 15.84179688 182.33935547 C13.80329255 183.53058454 11.76856508 184.72828579 9.73632812 185.93017578 C8.66318359 186.56294434 7.59003906 187.19571289 6.484375 187.84765625 C5.50694336 188.42652588 4.52951172 189.00539551 3.52246094 189.60180664 C-1.27810087 192.26274523 -5.61919251 192.74878551 -11 192 C-16.4812463 189.94212858 -19.56094161 187.03564346 -22.13919067 181.70546341 C-24.05980146 175.66911826 -23.55253985 169.13575984 -23.51757812 162.85693359 C-23.52300413 161.22018309 -23.53012947 159.58343748 -23.53881836 157.94670105 C-23.55699503 153.51910447 -23.55000847 149.09188227 -23.53730202 144.66427946 C-23.52714838 140.02394855 -23.53657393 135.38364887 -23.54284668 130.74331665 C-23.55011476 122.95414495 -23.54055593 115.16512518 -23.52148438 107.37597656 C-23.49970194 98.37582345 -23.50678029 89.37603262 -23.52879 80.37588823 C-23.54694971 72.63978458 -23.54949999 64.90378988 -23.53903532 57.1676718 C-23.5328055 52.55091324 -23.531951 47.93432493 -23.54518127 43.31757736 C-23.55674804 38.97865923 -23.54869917 34.64020788 -23.52560425 30.3013401 C-23.5203222 28.71065483 -23.52182234 27.11993016 -23.53065491 25.52926064 C-23.54161439 23.35486616 -23.52784483 21.18195998 -23.50793457 19.00765991 C-23.50642647 17.79206579 -23.50491837 16.57647167 -23.50336456 15.32404137 C-22.48742773 8.61515419 -18.11893741 4.89484368 -13 1 C-9.00955426 -0.99522287 -4.339934 -0.47752856 0 0 Z " fill="#FBFBFB" transform="translate(980,928)"/>
<path d="M0 0 C1.31363525 0.23638184 1.31363525 0.23638184 2.65380859 0.47753906 C29.67450827 5.35567986 29.67450827 5.35567986 40.40234375 9.1328125 C43.13779907 10.0460021 45.8978769 10.84603426 48.6706543 11.63745117 C56.00424243 13.73479218 63.23794644 16.04194557 70.4375 18.5625 C71.24098877 18.84319336 72.04447754 19.12388672 72.87231445 19.41308594 C92.24266525 26.27429011 111.09085249 34.93008788 129 45 C129.5882959 45.32516602 130.1765918 45.65033203 130.78271484 45.98535156 C138.33597186 50.16444988 138.33597186 50.16444988 141 52 C141 52.66 141 53.32 141 54 C137.09137613 52.56111099 133.6934662 50.70268983 130.125 48.5625 C120.09712954 42.69636126 109.53591873 37.87191708 99 33 C98.34032227 32.69320312 97.68064453 32.38640625 97.00097656 32.0703125 C67.89239735 18.65346595 36.45897841 9.47264001 5.02050781 3.57617188 C2.359282 3.06853423 -0.28512082 2.51071428 -2.93359375 1.94140625 C-42.78631577 -5.99069888 -86.86963557 -4.21285037 -126.83935547 1.6328125 C-129.92545263 1.99133947 -132.89643844 2.06564663 -136 2 C-133.65236342 -0.34763658 -132.77415205 -0.38251206 -129.5625 -0.81640625 C-128.66660156 -0.94080078 -127.77070312 -1.06519531 -126.84765625 -1.19335938 C-125.90792969 -1.31517578 -124.96820312 -1.43699219 -124 -1.5625 C-123.09121094 -1.68818359 -122.18242188 -1.81386719 -121.24609375 -1.94335938 C-81.70442963 -7.31495102 -39.32039776 -7.27885326 0 0 Z " fill="#DCE0E0" transform="translate(1546,624)"/>
<path d="M0 0 C1.34105076 4.02315228 -0.10036326 6.35581803 -1.6875 10.0625 C-1.9656958 10.73498779 -2.2438916 11.40747559 -2.53051758 12.1003418 C-3.34587548 14.07025968 -4.17192829 16.03539986 -5 18 C-7.41007338 23.80320301 -9.54997587 29.55386023 -11.29296875 35.59375 C-11.93346731 37.7735683 -12.63564265 39.91464625 -13.375 42.0625 C-16.6148487 51.69633583 -19.70579021 61.46656345 -21.48046875 71.484375 C-22.10494841 74.50817126 -22.99952703 77.41394085 -23.875 80.375 C-25.88934653 87.79865912 -27.0874133 95.26581308 -28.1875 102.875 C-28.35427246 104.00856934 -28.52104492 105.14213867 -28.69287109 106.31005859 C-31.11915501 123.83765327 -31.23772699 141.39717245 -31.25 159.0625 C-31.25133942 160.20596893 -31.25267883 161.34943787 -31.25405884 162.52755737 C-31.24933238 181.19626243 -30.49691512 199.48406319 -28 218 C-27.86658203 219.00289062 -27.73316406 220.00578125 -27.59570312 221.0390625 C-26.68344659 227.70171223 -25.77122923 234.30487402 -23.91796875 240.78125 C-22.99423978 244.02019752 -22.83670643 246.6524819 -23 250 C-28.81540184 239.42420285 -29.67446798 226.20272558 -31.1875 214.4375 C-31.43765869 212.5042688 -31.43765869 212.5042688 -31.69287109 210.53198242 C-33.64064431 194.75461901 -34.23673103 179.12675405 -34.25 163.25 C-34.25133942 162.29644623 -34.25267883 161.34289246 -34.25405884 160.36044312 C-34.25006475 147.12830885 -33.8442575 133.99540683 -32.6875 120.8125 C-32.62864624 120.12458374 -32.56979248 119.43666748 -32.50915527 118.72790527 C-31.10437005 102.78036744 -28.0274271 87.31002243 -24.203125 71.78833008 C-23.62485659 69.43691687 -23.058014 67.08294998 -22.4921875 64.72851562 C-20.05267393 54.68128147 -17.21620832 44.82520932 -14 35 C-13.72671875 34.15783936 -13.4534375 33.31567871 -13.171875 32.44799805 C-9.49594884 21.30210188 -4.9082323 10.65111324 0 0 Z " fill="#F9F9F9" transform="translate(190,862)"/>
<path d="M0 0 C2.3406721 3.51100815 3.1977316 6.97561722 4.25 11 C8.86829699 28.05310036 14.48644535 44.57819403 21 61 C21.31163086 61.79905762 21.62326172 62.59811523 21.94433594 63.42138672 C26.8659537 75.98583419 32.93964665 87.71058177 39.56884766 99.45507812 C40.86963481 101.76818036 42.14875689 104.09134403 43.41796875 106.421875 C53.78572823 125.36719581 66.47664145 143.18185955 80 160 C79.67 160.66 79.34 161.32 79 162 C71.55216915 154.18437503 65.25300328 145.77553573 59 137 C58.34902344 136.10023438 57.69804687 135.20046875 57.02734375 134.2734375 C48.48964698 122.33233085 40.64983686 109.41815208 34.12207031 96.25585938 C32.79740458 93.59377093 31.46148548 90.93848823 30.10546875 88.29223633 C25.32437386 78.91729993 20.99819393 69.42091408 17 59.6875 C16.70073608 58.96264404 16.40147217 58.23778809 16.09313965 57.4909668 C-0.39063165 17.37161914 -0.39063165 17.37161914 0 0 Z " fill="#F8F8F8" transform="translate(168,1117)"/>
<path d="M0 0 C5.14388864 0.49969204 9.80476822 1.42891375 14.74731445 2.91699219 C25.63702066 6.1879461 36.61995971 8.35253581 47.8125 10.25 C48.53877594 10.37442474 49.26505188 10.49884949 50.01333618 10.62704468 C72.39985859 14.4362457 94.60743262 16.23311806 117.3125 16.25 C118.14538544 16.25067474 118.97827087 16.25134949 119.83639526 16.25204468 C163.98131857 17.30299594 163.98131857 17.30299594 206 7 C208.3329866 6.95977609 210.66706666 6.95679753 213 7 C210.2816483 9.7183517 208.10309781 9.74062166 204.33203125 10.4375 C203.32422859 10.62590454 203.32422859 10.62590454 202.29606628 10.81811523 C200.86513636 11.08395628 199.43349182 11.34597455 198.0012207 11.60449219 C195.86433345 11.99063355 193.72996348 12.38868688 191.59570312 12.7890625 C133.737373 23.52001527 75.6416083 20.4014504 18.625 6.8125 C17.91059753 6.64441833 17.19619507 6.47633667 16.46014404 6.30316162 C14.44175849 5.82432295 12.42751932 5.33114253 10.4140625 4.83203125 C9.2688916 4.55077393 8.1237207 4.2695166 6.94384766 3.97973633 C4.07741725 3.02576509 2.26684865 1.96402536 0 0 Z " fill="#F9F9F9" transform="translate(442,1410)"/>
<path d="M0 0 C6.8194435 5.15246842 11.61402836 11.61377948 16.74560547 18.36230469 C18.3176358 20.41469462 19.94242083 22.42293347 21.5625 24.4375 C28.76231443 33.72147124 34.98346112 43.79728229 41.0703125 53.83203125 C42.3578375 55.94576156 43.6652783 58.04748721 44.9921875 60.13671875 C49.84839927 67.81784748 54.02211045 75.67209938 57.95703125 83.84912109 C59.01478054 86.03048141 60.09929932 88.19697362 61.1875 90.36328125 C65.72857394 99.52350201 69.60781387 108.83593449 73.125 118.4375 C73.52775146 119.52216553 73.93050293 120.60683105 74.34545898 121.72436523 C74.70841064 122.74216064 75.0713623 123.75995605 75.4453125 124.80859375 C75.77031738 125.71407959 76.09532227 126.61956543 76.43017578 127.55249023 C77.03394298 130.14579194 76.8836519 131.52064472 76 134 C75.57589844 132.82566406 75.15179687 131.65132812 74.71484375 130.44140625 C68.67987913 113.82830139 62.24499516 97.64956337 54 82 C53.56026855 81.16307617 53.12053711 80.32615234 52.66748047 79.46386719 C38.85260458 53.31478915 22.90929655 28.65824728 3.51123047 6.28271484 C0 2.20416228 0 2.20416228 0 0 Z " fill="#ECF0F0" transform="translate(1782,759)"/>
<path d="M0 0 C4.03321763 1.21934486 7.54269479 2.55954927 11 5 C11 5.66 11 6.32 11 7 C11.84175781 7.22558594 12.68351562 7.45117188 13.55078125 7.68359375 C17.6644478 9.2535888 20.70469912 11.41600437 24.1875 14.0625 C24.84242432 14.55129639 25.49734863 15.04009277 26.17211914 15.54370117 C31.0750768 19.22914987 35.83947325 23.0599567 40.546875 26.9921875 C43.4860219 29.39779499 46.53094138 31.62396879 49.63671875 33.80859375 C50.08660156 34.20175781 50.53648438 34.59492187 51 35 C51 35.66 51 36.32 51 37 C51.58523438 37.26683594 52.17046875 37.53367187 52.7734375 37.80859375 C55.04730176 39.02531059 56.71165914 40.34049323 58.625 42.0625 C59.32238281 42.68898438 60.01976562 43.31546875 60.73828125 43.9609375 C61.85783203 44.97027344 61.85783203 44.97027344 63 46 C64.16595703 47.00933594 64.16595703 47.00933594 65.35546875 48.0390625 C71.53858946 53.44560684 77.0922847 59.2903924 82.56054688 65.39892578 C85.08111503 68.2025021 87.63646193 70.97417529 90.1875 73.75 C91.11863757 74.76548933 92.04964139 75.78110132 92.98046875 76.796875 C93.64691406 77.52390625 94.31335937 78.2509375 95 79 C94.67 79.66 94.34 80.32 94 81 C92.97561545 80.00363813 91.95577287 79.00260713 90.9375 78 C90.36902344 77.443125 89.80054688 76.88625 89.21484375 76.3125 C87.34998237 74.36541369 85.59028798 72.38163275 83.83203125 70.33984375 C79.66569653 65.55124625 75.23925731 61.04726176 70.75 56.5625 C69.90808105 55.72138672 69.06616211 54.88027344 68.19873047 54.01367188 C63.18567913 49.04987224 58.14979076 44.35571262 52.58203125 40.01953125 C50.13723513 38.10733822 47.78094727 36.11411485 45.43310547 34.0847168 C33.1989559 23.53695572 20.17650422 14.27842438 6.65429688 5.45581055 C5.78869141 4.88902588 4.92308594 4.32224121 4.03125 3.73828125 C3.25330078 3.23337158 2.47535156 2.72846191 1.67382812 2.20825195 C1.12146484 1.80952881 0.56910156 1.41080566 0 1 C0 0.67 0 0.34 0 0 Z " fill="#E9EDED" transform="translate(1687,678)"/>
<path d="M0 0 C0.33 0 0.66 0 1 0 C1.01458252 1.13501953 1.02916504 2.27003906 1.04418945 3.43945312 C0.99495329 51.07321618 0.99495329 51.07321618 9.08203125 97.78125 C10.00576022 101.02019752 10.16329357 103.6524819 10 107 C-6.31520583 77.32942657 -0.45267932 32.24621586 0 0 Z " fill="#F3F4F3" transform="translate(157,1005)"/>
<path d="M0 0 C4.21414706 3.31752003 7.61618947 6.64856382 10.91796875 10.87890625 C16.09409496 17.27637156 21.77429379 23.07716188 27.61035156 28.87109375 C29.37280238 30.62281575 31.12428568 32.38499428 32.875 34.1484375 C38.94803434 40.22701662 45.0850649 45.92998505 51.87744141 51.20849609 C54 53 54 53 56 56 C51.42075764 54.5632102 48.45059575 51.95412752 45.0625 48.6875 C44.05468474 47.73170101 43.04557164 46.77726862 42.03515625 45.82421875 C41.29011841 45.12039063 41.29011841 45.12039063 40.5300293 44.40234375 C38.09791048 42.17319256 35.54240339 40.10195886 33 38 C31.31183067 36.35511706 29.64646685 34.68662458 28 33 C27.46503906 32.47535156 26.93007813 31.95070313 26.37890625 31.41015625 C22.7523515 27.84821718 19.34737437 24.16763251 16.03125 20.31640625 C13.02555485 16.88875774 9.92438964 13.54982599 6.81933594 10.2121582 C0 2.83591795 0 2.83591795 0 0 Z " fill="#F9F9F9" transform="translate(248,1279)"/>
<path d="M0 0 C0.66 0.33 1.32 0.66 2 1 C-1.26953036 7.49139994 -6.10993622 9.52273621 -12.5625 12.4375 C-13.52091797 12.89576172 -14.47933594 13.35402344 -15.46679688 13.82617188 C-22.59122283 17.13625906 -22.59122283 17.13625906 -26 16 C-24.03305603 10.49255689 -18.9321981 8.46609905 -14 6 C-13.34 5.34 -12.68 4.68 -12 4 C-10.1646962 3.41616668 -8.30635448 2.90288619 -6.4375 2.4375 C-2.92225001 1.78577597 -2.92225001 1.78577597 0 0 Z " fill="#3A4145" transform="translate(1664,1376)"/>
<path d="M0 0 C19.51142476 5.08993689 38.49279762 15.15609261 56 25 C56.5882959 25.32516602 57.1765918 25.65033203 57.78271484 25.98535156 C65.33597186 30.16444988 65.33597186 30.16444988 68 32 C68 32.66 68 33.32 68 34 C64.09137613 32.56111099 60.6934662 30.70268983 57.125 28.5625 C40.35636978 18.75312803 22.14452301 10.57558036 3.890625 3.95703125 C2 3 2 3 0 0 Z " fill="#EDF1F1" transform="translate(1619,644)"/>
<path d="M0 0 C0.33 0 0.66 0 1 0 C0.35054426 7.28918563 -1.02503143 14.25276767 -2.6875 21.375 C-3.08352417 23.08006714 -3.08352417 23.08006714 -3.48754883 24.81958008 C-6.43008364 37.20887952 -9.90740413 49.31698595 -15 61 C-15.74578554 62.97296443 -16.47654166 64.95171981 -17.1875 66.9375 C-17.53167969 67.89527344 -17.87585937 68.85304688 -18.23046875 69.83984375 C-18.48441406 70.55269531 -18.73835938 71.26554687 -19 72 C-20.63004795 67.95900906 -19.27239141 65.16729742 -17.83203125 61.20703125 C-17.34773571 59.84895902 -16.86344216 58.49088608 -16.37915039 57.1328125 C-15.99462204 56.07368652 -15.99462204 56.07368652 -15.60232544 54.99316406 C-11.2935412 43.09685069 -7.5594803 31.40564433 -5 19 C-4.29807758 16.03470886 -3.55811048 13.07956862 -2.8125 10.125 C-2.64500244 9.45146484 -2.47750488 8.77792969 -2.30493164 8.08398438 C-1.62032755 5.34980923 -0.89180348 2.67541045 0 0 Z " fill="#E1E5E5" transform="translate(1873,1100)"/>
<path d="M0 0 C0 0.33 0 0.66 0 1 C-1.05348633 1.03963867 -2.10697266 1.07927734 -3.19238281 1.12011719 C-24.14258979 1.92977403 -44.93114198 3.13873289 -65.74902344 5.67871094 C-66.82344444 5.8091832 -66.82344444 5.8091832 -67.91957092 5.94229126 C-69.83533518 6.17749411 -71.75011278 6.42069556 -73.66479492 6.66455078 C-76.80463994 6.98035102 -79.84715747 7.06190883 -83 7 C-80.65236342 4.65236342 -79.77415205 4.61748794 -76.5625 4.18359375 C-75.66660156 4.05919922 -74.77070312 3.93480469 -73.84765625 3.80664062 C-72.90792969 3.68482422 -71.96820312 3.56300781 -71 3.4375 C-70.09121094 3.31181641 -69.18242188 3.18613281 -68.24609375 3.05664062 C-58.89315616 1.78607798 -49.55421749 0.86997588 -40.125 0.4375 C-39.20895996 0.3950415 -38.29291992 0.35258301 -37.34912109 0.30883789 C-24.90566695 -0.20421974 -12.45111318 -0.08895607 0 0 Z " fill="#EDF0F1" transform="translate(1493,619)"/>
<path d="M0 0 C2.37177413 2.12053903 3.48853445 3.74689455 4.39453125 6.7890625 C4.62495117 7.553396 4.85537109 8.31772949 5.09277344 9.10522461 C5.3302832 9.93675049 5.56779297 10.76827637 5.8125 11.625 C6.19390137 12.93126343 6.19390137 12.93126343 6.58300781 14.26391602 C17.69474564 53.06296869 17.69474564 53.06296869 17 68 C16.67 68 16.34 68 16 68 C15.83491943 66.98526611 15.66983887 65.97053223 15.49975586 64.92504883 C13.81294376 54.82753804 11.6691703 44.91646802 9.14819336 34.99584961 C8.55882289 32.67300767 7.98098956 30.34750259 7.40429688 28.02148438 C5.47674628 20.32320877 3.39956665 12.77433612 0.71459961 5.29614258 C0 3 0 3 0 0 Z " fill="#E4E9E8" transform="translate(1859,893)"/>
<path d="M0 0 C0 3.94796978 -1.32344017 5.03586887 -3.75 8.125 C-4.58027555 9.20146971 -5.40827496 10.27969762 -6.234375 11.359375 C-6.68103516 11.94267578 -7.12769531 12.52597656 -7.58789062 13.12695312 C-21.23553853 31.14954447 -21.23553853 31.14954447 -32.375 50.75 C-34 54 -34 54 -37 56 C-29.56843721 35.79543866 -14.38480603 15.72615451 0 0 Z " fill="#F8F8F8" transform="translate(245,771)"/>
<path d="M0 0 C-4.21082072 5.73001879 -8.6395621 8.91229651 -15 12 C-15.75023437 12.37511719 -16.50046875 12.75023437 -17.2734375 13.13671875 C-17.84320312 13.42160156 -18.41296875 13.70648437 -19 14 C-19.66 12.35 -20.32 10.7 -21 9 C-19.35 9 -17.7 9 -16 9 C-15.938125 8.401875 -15.87625 7.80375 -15.8125 7.1875 C-14.66595401 4.10064541 -12.85712396 3.49658874 -10 2 C-6.3558226 -0.4294516 -4.28758728 -0.16179575 0 0 Z " fill="#3D4447" transform="translate(1717,1347)"/>
<path d="M0 0 C0 0.33 0 0.66 0 1 C-1.04671875 1.20753906 -2.0934375 1.41507813 -3.171875 1.62890625 C-14.6035597 3.94415149 -25.91002868 6.66371783 -37.21386719 9.53735352 C-43.45817596 11.12405836 -49.70145298 12.64359648 -56 14 C-53.69666542 11.32169326 -51.92950469 10.46733915 -48.5078125 9.68359375 C-47.63769531 9.47669922 -46.76757812 9.26980469 -45.87109375 9.05664062 C-44.96488281 8.85232422 -44.05867188 8.64800781 -43.125 8.4375 C-36.71647044 7.04720609 -36.71647044 7.04720609 -30.515625 4.98046875 C-26.35960715 3.36065434 -21.99843067 2.69501825 -17.625 1.875 C-16.24441406 1.60236328 -16.24441406 1.60236328 -14.8359375 1.32421875 C-9.79841556 0.36708958 -5.12642562 -0.21183577 0 0 Z " fill="#E5E9EA" transform="translate(1410,626)"/>
<path d="M0 0 C-1.11440652 3.34321955 -1.97472343 4.06019619 -4.625 6.25 C-10.5968418 11.32766228 -15.91670586 16.80499998 -21.02734375 22.7421875 C-24.26821658 26.45154294 -27.62221092 30.05853087 -30.9609375 33.6796875 C-33.01577328 35.81946882 -33.01577328 35.81946882 -34 38 C-34.66 38 -35.32 38 -36 38 C-36.66 39.32 -37.32 40.64 -38 42 C-38 35.65096264 -30.87123218 29.93950267 -26.64453125 25.55859375 C-25.13866662 24.06828022 -23.62697993 22.58382527 -22.109375 21.10546875 C-20.17854196 19.17821133 -18.39327187 17.20061436 -16.625 15.125 C-13.60748524 11.61758285 -10.43665224 8.29136273 -7.1875 5 C-6.70684082 4.5064502 -6.22618164 4.01290039 -5.73095703 3.50439453 C-2.23648645 0 -2.23648645 0 0 0 Z " fill="#F8F8F8" transform="translate(285,729)"/>
<path d="M0 0 C6.74956457 4.63205411 12.09348965 10.03403232 17.625 16.0625 C18.13772461 16.6196167 18.65044922 17.1767334 19.17871094 17.75073242 C20.78713907 19.49927011 22.39382366 21.2493938 24 23 C24.53657227 23.58458984 25.07314453 24.16917969 25.62597656 24.77148438 C28.75293757 28.17889887 31.8774452 31.58854742 35 35 C34.505 35.99 34.505 35.99 34 37 C32.97561545 36.00363813 31.95577287 35.00260713 30.9375 34 C30.36902344 33.443125 29.80054688 32.88625 29.21484375 32.3125 C27.36958086 30.38587632 25.63946892 28.42381224 23.90625 26.3984375 C18.54299712 20.22608244 12.61271131 14.60487101 6.76757812 8.89453125 C5.89681641 8.03472656 5.02605469 7.17492187 4.12890625 6.2890625 C3.33556885 5.51256348 2.54223145 4.73606445 1.72485352 3.93603516 C0 2 0 2 0 0 Z " fill="#EEF2F1" transform="translate(1747,722)"/>
<path d="M0 0 C0 0.66 0 1.32 0 2 C-0.66 2 -1.32 2 -2 2 C-2 2.66 -2 3.32 -2 4 C-2.66 4 -3.32 4 -4 4 C-4.09152344 4.59296875 -4.18304687 5.1859375 -4.27734375 5.796875 C-5.17232113 8.52534657 -6.33906301 9.47125041 -8.5625 11.25 C-9.20316406 11.77078125 -9.84382813 12.2915625 -10.50390625 12.828125 C-11.24447266 13.40820312 -11.24447266 13.40820312 -12 14 C-13.5 12.625 -13.5 12.625 -15 11 C-15 10.34 -15 9.68 -15 9 C-14.071875 8.87625 -14.071875 8.87625 -13.125 8.75 C-10.81562433 8.18741541 -10.81562433 8.18741541 -9.75 5.9375 C-9.5025 5.298125 -9.255 4.65875 -9 4 C-8.34 4 -7.68 4 -7 4 C-7 3.34 -7 2.68 -7 2 C-4 0 -4 0 0 0 Z M-17 12 C-16.34 12 -15.68 12 -15 12 C-15 12.66 -15 13.32 -15 14 C-15.99 13.67 -16.98 13.34 -18 13 C-17.67 12.67 -17.34 12.34 -17 12 Z " fill="#353F40" transform="translate(1757,1311)"/>
<path d="M0 0 C0.66 0 1.32 0 2 0 C1.5067649 7.06970306 -1.02478696 13.60468225 -4 20 C-4.66 20.33 -5.32 20.66 -6 21 C-5.7697859 5.91051239 -5.7697859 5.91051239 0 0 Z " fill="#374042" transform="translate(1857,1150)"/>
<path d="M0 0 C0 3 0 3 -1.29418945 4.37524414 C-2.19463989 5.07315063 -2.19463989 5.07315063 -3.11328125 5.78515625 C-3.77956543 6.31149658 -4.44584961 6.83783691 -5.13232422 7.38012695 C-5.85178223 7.93531006 -6.57124023 8.49049316 -7.3125 9.0625 C-13.44983487 13.9012638 -19.29634555 18.88731322 -24.9609375 24.26953125 C-27 26 -27 26 -29 26 C-29.33 26.99 -29.66 27.98 -30 29 C-30.66 29 -31.32 29 -32 29 C-30.68904505 26.04688061 -29.3658972 24.17235391 -26.91015625 22.08203125 C-26.29567627 21.55399902 -25.68119629 21.0259668 -25.0480957 20.48193359 C-24.39284912 19.93102051 -23.73760254 19.38010742 -23.0625 18.8125 C-22.3924292 18.24096191 -21.7223584 17.66942383 -21.03198242 17.08056641 C-14.1531604 11.2327065 -7.25890733 5.37326014 0 0 Z " fill="#F8F8F8" transform="translate(317,700)"/>
<path d="M0 0 C11.46649102 2.99125853 22.19124532 8.22590984 33 13 C33 13.99 33 14.98 33 16 C32.41621582 15.74831055 31.83243164 15.49662109 31.23095703 15.23730469 C28.52954343 14.07353678 25.82727736 12.91176075 23.125 11.75 C22.2071875 11.35425781 21.289375 10.95851563 20.34375 10.55078125 C19.42851563 10.15761719 18.51328125 9.76445313 17.5703125 9.359375 C16.6515332 8.96427734 15.73275391 8.56917969 14.78613281 8.16210938 C11.22445273 6.67651551 7.61675867 5.32380018 3.99169922 4.00097656 C2 3 2 3 0 0 Z " fill="#E6EAEA" transform="translate(1619,644)"/>
<path d="M0 0 C1 3 1 3 -0.37109375 5.9765625 C-1.05142565 7.19746688 -1.74089708 8.41330558 -2.4375 9.625 C-5.68403135 15.46715643 -8.68120806 21.37700121 -11.5 27.4375 C-11.8498999 28.18918457 -12.1997998 28.94086914 -12.56030273 29.71533203 C-13.37670899 31.47541933 -14.18885362 33.23748247 -15 35 C-16.53757947 30.34303774 -14.63944745 27.3083121 -12.5625 23.125 C-12.20285156 22.38064697 -11.84320313 21.63629395 -11.47265625 20.86938477 C-7.97165822 13.72683214 -4.07025993 6.83067557 0 0 Z " fill="#FBFBFB" transform="translate(207,827)"/>
<path d="M0 0 C0 0.99 0 1.98 0 3 C-1.39567377 4.19142882 -2.80048752 5.37358305 -4.24609375 6.50390625 C-6.0974438 8.08312022 -7.56909511 9.75562041 -9.125 11.625 C-13.91295833 17.26679289 -19.49211175 22.07998159 -25 27 C-25.66 26.67 -26.32 26.34 -27 26 C-21.6924255 20.5945399 -16.41488184 15.31010658 -10.49609375 10.5703125 C-8.76426889 8.75257465 -8.38718725 7.45041796 -8 5 C-7.34 5 -6.68 5 -6 5 C-6 4.34 -6 3.68 -6 3 C-5.38125 2.87625 -4.7625 2.7525 -4.125 2.625 C-1.80879168 2.12802644 -1.80879168 2.12802644 0 0 Z " fill="#EBEEEE" transform="translate(1769,1302)"/>
<path d="M0 0 C0 0.33 0 0.66 0 1 C-4.89233664 1.71660248 -9.78532088 2.42854308 -14.67895508 3.13623047 C-16.34255139 3.37747217 -18.00596579 3.61997187 -19.66918945 3.86376953 C-22.06414469 4.21460004 -24.45972429 4.56085534 -26.85546875 4.90625 C-27.5952446 5.0156189 -28.33502045 5.12498779 -29.09721375 5.2376709 C-32.76048358 5.76127736 -36.29817378 6.12710133 -40 6 C-35.05507837 1.05507837 -25.13617014 1.60545571 -18.4375 0.875 C-17.64674072 0.78734375 -16.85598145 0.6996875 -16.04125977 0.609375 C-10.66772935 0.05738762 -5.40159878 -0.07554684 0 0 Z " fill="#F8F8F8" transform="translate(520,622)"/>
<path d="M0 0 C0.79921875 0.01804687 1.5984375 0.03609375 2.421875 0.0546875 C3.02515625 0.07789063 3.6284375 0.10109375 4.25 0.125 C4.25 1.115 4.25 2.105 4.25 3.125 C0.1303623 4.41743536 -3.41831683 5.38752625 -7.75 5.125 C-8.08 4.135 -8.41 3.145 -8.75 2.125 C-5.68753253 0.34090198 -3.52920727 -0.10380021 0 0 Z " fill="#3B4346" transform="translate(1587.75,1407.875)"/>
<path d="M0 0 C1.13598633 0.00483398 1.13598633 0.00483398 2.29492188 0.00976562 C3.47344727 0.02233398 3.47344727 0.02233398 4.67578125 0.03515625 C5.47306641 0.03966797 6.27035156 0.04417969 7.09179688 0.04882812 C9.05732382 0.06059775 11.0228121 0.07853277 12.98828125 0.09765625 C12.98828125 0.75765625 12.98828125 1.41765625 12.98828125 2.09765625 C6.02048722 3.42485511 -0.94160786 3.18591006 -8.01171875 3.09765625 C-6.3127245 -0.30033224 -3.42071751 -0.02571968 0 0 Z " fill="#798187" transform="translate(1052.01171875,1422.90234375)"/>
<path d="M0 0 C0 0.33 0 0.66 0 1 C-0.87011719 1.14695312 -0.87011719 1.14695312 -1.7578125 1.296875 C-9.63520011 2.80475778 -14.0410261 5.62417642 -19 12 C-19.66 12 -20.32 12 -21 12 C-19.76067171 8.56801397 -18.49698489 5.69674368 -16 3 C-15.01 3 -14.02 3 -13 3 C-13 2.34 -13 1.68 -13 1 C-8.60563789 0.14256349 -4.47427924 -0.08948558 0 0 Z " fill="#7E878A" transform="translate(978,926)"/>
<path d="M0 0 C3.54506192 1.62059974 6.59021257 3.72629052 9.75 6 C10.73484375 6.70125 11.7196875 7.4025 12.734375 8.125 C13.48203125 8.74375 14.2296875 9.3625 15 10 C15 10.66 15 11.32 15 12 C16.32 12.66 17.64 13.32 19 14 C12.65033637 14 6.23593722 7.39670362 1.8125 3.0625 C0 1 0 1 0 0 Z " fill="#F4F4F4" transform="translate(304,1335)"/>
<path d="M0 0 C3.13269705 3.13269705 3.05494397 5.97328423 3.0625 10.25 C3.041875 11.4875 3.02125 12.725 3 14 C1.68 14 0.36 14 -1 14 C-1.02705729 12.22925083 -1.04642195 10.45838289 -1.0625 8.6875 C-1.07410156 7.70136719 -1.08570313 6.71523438 -1.09765625 5.69921875 C-1 3 -1 3 0 0 Z " fill="#3A4244" transform="translate(1870,938)"/>
<path d="M0 0 C0 4.1113276 -1.69569353 5.58087497 -4.1875 8.8125 C-4.59734131 9.34713867 -5.00718262 9.88177734 -5.42944336 10.43261719 C-8.20090164 14.02997771 -11.03711128 17.559226 -14 21 C-14.66 20.67 -15.32 20.34 -16 20 C-10.66666667 13.33333333 -5.33333333 6.66666667 0 0 Z " fill="#E7EAEB" transform="translate(1800,1265)"/>
<path d="M0 0 C6.43255401 -0.12086218 12.61773055 0.17648136 19 1 C17 3 17 3 15.12060547 3.22705078 C14.37697754 3.21657715 13.63334961 3.20610352 12.8671875 3.1953125 C11.65869141 3.18564453 11.65869141 3.18564453 10.42578125 3.17578125 C9.58402344 3.15902344 8.74226563 3.14226562 7.875 3.125 C6.60076172 3.11146484 6.60076172 3.11146484 5.30078125 3.09765625 C3.20040116 3.07405647 1.10016556 3.03818483 -1 3 C-0.67 2.01 -0.34 1.02 0 0 Z " fill="#3A4347" transform="translate(1396,1415)"/>
<path d="M0 0 C0.99 0 1.98 0 3 0 C3.2475 0.94875 3.495 1.8975 3.75 2.875 C5.19329188 6.48322971 5.73736801 6.4213071 9 8 C9.75 10.625 9.75 10.625 10 13 C8 13 8 13 6.2734375 11.3203125 C5.64695312 10.59585938 5.02046875 9.87140625 4.375 9.125 C3.74335937 8.40570312 3.11171875 7.68640625 2.4609375 6.9453125 C1 5 1 5 1 3 C0.34 3 -0.32 3 -1 3 C-0.67 2.01 -0.34 1.02 0 0 Z " fill="#7E8589" transform="translate(1115,1002)"/>
<path d="M0 0 C3.43477838 1.04338057 4.11109458 2.1913665 5.95703125 5.37109375 C6.58868598 6.72047776 7.20679717 8.07626932 7.8125 9.4375 C8.13669922 10.11876953 8.46089844 10.80003906 8.79492188 11.50195312 C11.13055455 16.60833634 11.13055455 16.60833634 10 20 C8.33002304 16.85591306 6.66457635 13.70944906 5 10.5625 C4.52304688 9.66466797 4.04609375 8.76683594 3.5546875 7.84179688 C3.10351562 6.98779297 2.65234375 6.13378906 2.1875 5.25390625 C1.76855469 4.46314697 1.34960938 3.6723877 0.91796875 2.85766602 C0 1 0 1 0 0 Z " fill="#E5EBEC" transform="translate(1829,827)"/>
<path d="M0 0 C-0.969375 0.5775 -1.93875 1.155 -2.9375 1.75 C-6.09469292 3.64792862 -6.09469292 3.64792862 -6.875 6.25 C-6.91625 6.8275 -6.9575 7.405 -7 8 C-8.32 7.67 -9.64 7.34 -11 7 C-10.9375 5.25 -10.9375 5.25 -10 3 C-6.69928831 0.41203839 -4.20321079 -1.40107026 0 0 Z " fill="#7A8288" transform="translate(1095,1055)"/>
<path d="M0 0 C0.99 0.33 1.98 0.66 3 1 C3.33 3.64 3.66 6.28 4 9 C2.68 9 1.36 9 0 9 C-1.36623674 6.26752652 -1.128426 4.01801098 -1 1 C-0.67 0.67 -0.34 0.34 0 0 Z " fill="#3A4144" transform="translate(1855,889)"/>
<path d="M0 0 C0.66 0.99 1.32 1.98 2 3 C0.35 4.32 -1.3 5.64 -3 7 C-4.5 5.625 -4.5 5.625 -6 4 C-6 3.34 -6 2.68 -6 2 C-4.02 1.34 -2.04 0.68 0 0 Z M-8 5 C-7.34 5 -6.68 5 -6 5 C-6 5.66 -6 6.32 -6 7 C-6.99 6.67 -7.98 6.34 -9 6 C-8.67 5.67 -8.34 5.34 -8 5 Z " fill="#3B4546" transform="translate(1748,1318)"/>
<path d="M0 0 C0 0.99 0 1.98 0 3 C-8.261959 7.40774487 -8.261959 7.40774487 -13 8 C-9.81692689 4.43495812 -5.03655764 0 0 0 Z " fill="#7D848A" transform="translate(1078,1063)"/>
<path d="M0 0 C0.99 0 1.98 0 3 0 C3.33 2.97 3.66 5.94 4 9 C3.67 8.34 3.34 7.68 3 7 C1.68 7.33 0.36 7.66 -1 8 C-1.125 2.25 -1.125 2.25 0 0 Z " fill="#353E40" transform="translate(1862,912)"/>
<path d="M0 0 C-0.68707031 0.39832031 -1.37414063 0.79664063 -2.08203125 1.20703125 C-2.98308594 1.73683594 -3.88414063 2.26664063 -4.8125 2.8125 C-5.70582031 3.33457031 -6.59914063 3.85664062 -7.51953125 4.39453125 C-9.66831987 5.78532199 -11.29361617 7.1122066 -13 9 C-13.66 8.67 -14.32 8.34 -15 8 C-13.69432208 4.08296623 -12.19905398 3.68242813 -8.625 1.75 C-7.64789062 1.20859375 -6.67078125 0.6671875 -5.6640625 0.109375 C-3 -1 -3 -1 0 0 Z " fill="#7A8186" transform="translate(1036,1089)"/>
<path d="M0 0 C-0.49371094 0.33773437 -0.98742188 0.67546875 -1.49609375 1.0234375 C-2.13675781 1.46945312 -2.77742188 1.91546875 -3.4375 2.375 C-4.07558594 2.81585937 -4.71367188 3.25671875 -5.37109375 3.7109375 C-7.13740928 4.92160853 -7.13740928 4.92160853 -8 7 C-7.34 7 -6.68 7 -6 7 C-6 7.66 -6 8.32 -6 9 C-7.9375 8.1875 -7.9375 8.1875 -10 7 C-10.33 6.01 -10.66 5.02 -11 4 C-9.73760288 3.13341385 -8.46472499 2.28207941 -7.1875 1.4375 C-6.47980469 0.96183594 -5.77210937 0.48617187 -5.04296875 -0.00390625 C-3 -1 -3 -1 0 0 Z " fill="#333A3B" transform="translate(1263,686)"/>
<path d="M0 0 C1.65 0 3.3 0 5 0 C5.33 0.99 5.66 1.98 6 3 C2.7 3.66 -0.6 4.32 -4 5 C-4.33 4.01 -4.66 3.02 -5 2 C-3.35 2 -1.7 2 0 2 C0 1.34 0 0.68 0 0 Z " fill="#4A5053" transform="translate(1559,1415)"/>
<path d="M0 0 C0.99 0.495 0.99 0.495 2 1 C2 1.66 2 2.32 2 3 C2.8353125 3.37125 2.8353125 3.37125 3.6875 3.75 C6.39971127 5.21606015 8.63587365 7.02989471 11 9 C10.67 9.99 10.34 10.98 10 12 C8.32448647 10.57282151 6.65980691 9.13291518 5 7.6875 C3.6078125 6.48673828 3.6078125 6.48673828 2.1875 5.26171875 C0 3 0 3 0 0 Z " fill="#E4E9E8" transform="translate(1736,712)"/>
<path d="M0 0 C3.83663072 1.34929464 6.65172569 3.07751025 9.8125 5.625 C10.99779297 6.57246094 10.99779297 6.57246094 12.20703125 7.5390625 C12.79871094 8.02117187 13.39039063 8.50328125 14 9 C13.01 9.495 13.01 9.495 12 10 C9.99426318 8.71656721 7.99563881 7.4239631 6 6.125 C5.42765625 5.76019531 4.8553125 5.39539062 4.265625 5.01953125 C2.80818084 4.06525233 1.39962775 3.03722413 0 2 C0 1.34 0 0.68 0 0 Z " fill="#F7F7F7" transform="translate(323,1350)"/>
<path d="M0 0 C0.99 0 1.98 0 3 0 C2.25 4.75 2.25 4.75 0 7 C-2.625 7.625 -2.625 7.625 -5 8 C-4.67 6.35 -4.34 4.7 -4 3 C-3.34 3 -2.68 3 -2 3 C-2 3.66 -2 4.32 -2 5 C-1.34 5 -0.68 5 0 5 C0 3.35 0 1.7 0 0 Z " fill="#373F42" transform="translate(1811,1242)"/>
<path d="M0 0 C0.66 0 1.32 0 2 0 C2.33 1.32 2.66 2.64 3 4 C2.01 4.33 1.02 4.66 0 5 C-1.42857119 6.40105576 -1.42857119 6.40105576 -2.6875 8.0625 C-3.450625 9.031875 -4.21375 10.00125 -5 11 C-5.33 10.01 -5.66 9.02 -6 8 C-4.85546875 5.95703125 -4.85546875 5.95703125 -3.1875 3.8125 C-2.37345703 2.73935547 -2.37345703 2.73935547 -1.54296875 1.64453125 C-1.03378906 1.10183594 -0.52460937 0.55914063 0 0 Z " fill="#788084" transform="translate(1125,1031)"/>
<path d="M0 0 C2.62187494 1.04874998 3.79371361 1.64931313 5.25 4.125 C5.4975 4.74375 5.745 5.3625 6 6 C4.68 6.33 3.36 6.66 2 7 C2.33 5.68 2.66 4.36 3 3 C2.34 3 1.68 3 1 3 C0.67 3.66 0.34 4.32 0 5 C-0.66 4.01 -1.32 3.02 -2 2 C-1.34 1.34 -0.68 0.68 0 0 Z " fill="#3B4445" transform="translate(1750,728)"/>
<path d="M0 0 C-1.90881434 1.03544174 -3.82739204 2.05290085 -5.75 3.0625 C-6.81734375 3.63097656 -7.8846875 4.19945312 -8.984375 4.78515625 C-12.02593537 6.01044806 -13.04893565 6.25348607 -16 5 C-14.3970947 4.18501438 -12.79262722 3.37310073 -11.1875 2.5625 C-10.29417969 2.11003906 -9.40085937 1.65757812 -8.48046875 1.19140625 C-3.54193548 -1.18064516 -3.54193548 -1.18064516 0 0 Z " fill="#F5F5F5" transform="translate(410,650)"/>
<path d="M0 0 C0 0.99 0 1.98 0 3 C-5.28 3 -10.56 3 -16 3 C-16 2.67 -16 2.34 -16 2 C-13.70858188 1.66496236 -11.41685737 1.33201958 -9.125 1 C-7.21074219 0.7215625 -7.21074219 0.7215625 -5.2578125 0.4375 C-2 0 -2 0 0 0 Z " fill="#8E9597" transform="translate(1012,1424)"/>
<path d="M0 0 C-3.21182149 1.90608098 -5.53882603 2.22266247 -9.25 2.125 C-10.14203125 2.10695313 -11.0340625 2.08890625 -11.953125 2.0703125 C-12.96632813 2.03550781 -12.96632813 2.03550781 -14 2 C-8.42686087 -0.78656957 -6.23082583 -0.90447472 0 0 Z " fill="#363C3E" transform="translate(1534,1422)"/>
<path d="M0 0 C1.32 0 2.64 0 4 0 C4 1.98 4 3.96 4 6 C1.525 5.01 1.525 5.01 -1 4 C-0.67 2.68 -0.34 1.36 0 0 Z " fill="#31383A" transform="translate(1267,1362)"/>
<path d="M0 0 C-1.52994792 1.23697917 -3.05989583 2.47395833 -4.58984375 3.7109375 C-6.13266437 4.9666391 -6.13266437 4.9666391 -7 7 C-7.66 6.67 -8.32 6.34 -9 6 C-9 5.34 -9 4.68 -9 4 C-8.34 4 -7.68 4 -7 4 C-7 3.01 -7 2.02 -7 1 C-3.375 -1.125 -3.375 -1.125 0 0 Z " fill="#32393B" transform="translate(1278,677)"/>
<path d="M0 0 C0.66 0 1.32 0 2 0 C0.68775452 3.93673644 -0.91910327 6.22719294 -4 9 C-4.33 7.35 -4.66 5.7 -5 4 C-4.01 4 -3.02 4 -2 4 C-2 3.34 -2 2.68 -2 2 C-1.34 2 -0.68 2 0 2 C0 1.34 0 0.68 0 0 Z " fill="#3A4143" transform="translate(1807,1251)"/>
<path d="M0 0 C4.8 3.44615385 4.8 3.44615385 5.8125 6.25 C5.874375 6.8275 5.93625 7.405 6 8 C4.125 7.75 4.125 7.75 2 7 C0.27898465 4.41847698 0 3.15081975 0 0 Z " fill="#394042" transform="translate(1786,766)"/>
<path d="M0 0 C1.21816406 0.03480469 1.21816406 0.03480469 2.4609375 0.0703125 C3.68683594 0.09738281 3.68683594 0.09738281 4.9375 0.125 C5.87722656 0.15980469 5.87722656 0.15980469 6.8359375 0.1953125 C5.59765625 1.71484375 5.59765625 1.71484375 3.8359375 3.1953125 C1.05057902 3.29650143 -1.39942007 2.69385458 -4.1640625 2.1953125 C-2.1640625 0.1953125 -2.1640625 0.1953125 0 0 Z " fill="#4A5152" transform="translate(1401.1640625,1416.8046875)"/>
<path d="M0 0 C2.26527341 1.27784654 3.66473309 2.51487935 5.4375 4.375 C3.8120692 4.23404936 2.18715949 4.08707913 0.5625 3.9375 C-0.34242188 3.85628906 -1.24734375 3.77507812 -2.1796875 3.69140625 C-4.5625 3.375 -4.5625 3.375 -6.5625 2.375 C-3.26833832 -0.79715569 -3.26833832 -0.79715569 0 0 Z " fill="#EFF3F3" transform="translate(789.5625,1356.625)"/>
<path d="M0 0 C0 0.99 0 1.98 0 3 C-5.34883721 8 -5.34883721 8 -8 8 C-8 7.01 -8 6.02 -8 5 C-7.34 5 -6.68 5 -6 5 C-6 4.34 -6 3.68 -6 3 C-5.38125 2.87625 -4.7625 2.7525 -4.125 2.625 C-1.80879168 2.12802644 -1.80879168 2.12802644 0 0 Z " fill="#A2A6A8" transform="translate(1769,1302)"/>
<path d="M0 0 C2.40575607 2.18517099 3.79535581 4.25919671 5.1875 7.1875 C5.53167969 7.90292969 5.87585937 8.61835937 6.23046875 9.35546875 C6.48441406 9.89816406 6.73835938 10.44085937 7 11 C3.66428571 9.88809524 3.41582921 9.53679327 1.8125 6.625 C1.46832031 6.01914062 1.12414063 5.41328125 0.76953125 4.7890625 C0 3 0 3 0 0 Z " fill="#F2F5F5" transform="translate(1824,816)"/>
<path d="M0 0 C0.99 0.33 1.98 0.66 3 1 C2.34 1.66 1.68 2.32 1 3 C0.01 3 -0.98 3 -2 3 C-2.66 4.32 -3.32 5.64 -4 7 C-4.99 6.34 -5.98 5.68 -7 5 C-5.90554162 4.13342884 -4.79902219 3.28207276 -3.6875 2.4375 C-3.07261719 1.96183594 -2.45773437 1.48617187 -1.82421875 0.99609375 C-1.22222656 0.66738281 -0.62023437 0.33867188 0 0 Z " fill="#F2F2F2" transform="translate(351,677)"/>
<path d="M0 0 C0.99 0.33 1.98 0.66 3 1 C3 4.12900213 2.57548683 5.37418862 1 8 C0.01 8.495 0.01 8.495 -1 9 C-0.67 6.03 -0.34 3.06 0 0 Z " fill="#3A4244" transform="translate(1774,1288)"/>
<path d="M0 0 C0.66 0 1.32 0 2 0 C3.15837626 4.05431692 2.83691257 6.21812119 1 10 C-0.125 6.25 -0.125 6.25 1 4 C0.34 4 -0.32 4 -1 4 C-0.67 2.68 -0.34 1.36 0 0 Z " fill="#373E41" transform="translate(1837,845)"/>
<path d="M0 0 C0.98613281 0.30164063 1.97226563 0.60328125 2.98828125 0.9140625 C3.98214844 1.21054687 4.97601562 1.50703125 6 1.8125 C7.13888672 2.17214844 7.13888672 2.17214844 8.30078125 2.5390625 C4.89676177 3.67638676 2.52621461 3.37896207 -0.94921875 2.6015625 C-1.84125 2.40691406 -2.73328125 2.21226562 -3.65234375 2.01171875 C-4.3278125 1.85574219 -5.00328125 1.69976563 -5.69921875 1.5390625 C-2.69921875 -0.4609375 -2.69921875 -0.4609375 0 0 Z " fill="#DCDFE1" transform="translate(1543.69921875,623.4609375)"/>
<path d="M0 0 C1.32 0.66 2.64 1.32 4 2 C2.68 3.32 1.36 4.64 0 6 C-0.99 5.67 -1.98 5.34 -3 5 C-2.01 3.35 -1.02 1.7 0 0 Z " fill="#353B3D" transform="translate(1648,1384)"/>
<path d="M0 0 C3.81684226 1.55500981 6.19195732 4.03595495 9 7 C5.0480185 7 3.85351584 5.62823828 1 3 C0.67 2.01 0.34 1.02 0 0 Z " fill="#FAFAFA" transform="translate(304,1335)"/>
<path d="M0 0 C0.66 0.33 1.32 0.66 2 1 C2 1.66 2 2.32 2 3 C-2 7 -2 7 -5 8 C-3.8141763 4.62496331 -2.72426311 2.35277269 0 0 Z " fill="#2D3639" transform="translate(1341,1271)"/>
<path d="M0 0 C2.31 0.33 4.62 0.66 7 1 C6.67 1.66 6.34 2.32 6 3 C3.67843403 3.40729228 1.3431213 3.74438677 -1 4 C-0.67 2.68 -0.34 1.36 0 0 Z " fill="#4E5356" transform="translate(1405,627)"/>
<path d="M0 0 C0.66 0.33 1.32 0.66 2 1 C0.90716423 2.03295436 -0.19970579 3.05107835 -1.3125 4.0625 C-1.92738281 4.63097656 -2.54226563 5.19945312 -3.17578125 5.78515625 C-3.77777344 6.18605469 -4.37976562 6.58695313 -5 7 C-5.99 6.67 -6.98 6.34 -8 6 C-5.36 4.02 -2.72 2.04 0 0 Z " fill="#E6EAEB" transform="translate(1719,1346)"/>
<path d="M0 0 C0.66 0 1.32 0 2 0 C1.37240135 2.92879371 0.41377341 5.36095629 -1 8 C-1.66 8 -2.32 8 -3 8 C-2.37240135 5.07120629 -1.41377341 2.63904371 0 0 Z " fill="#2C3438" transform="translate(1379,1212)"/>
<path d="M0 0 C2.31 0 4.62 0 7 0 C5.625 2 5.625 2 4 4 C3.34 4 2.68 4 2 4 C2 3.34 2 2.68 2 2 C1.34 2 0.68 2 0 2 C0 1.34 0 0.68 0 0 Z " fill="#363E40" transform="translate(1710,1347)"/>
<path d="M0 0 C0.99 0.33 1.98 0.66 3 1 C2.34 2.65 1.68 4.3 1 6 C0.34 6 -0.32 6 -1 6 C-1 5.34 -1 4.68 -1 4 C-1.66 3.67 -2.32 3.34 -3 3 C-2.01 2.01 -1.02 1.02 0 0 Z " fill="#788186" transform="translate(990,1113)"/>
<path d="M0 0 C0.75 1.75 0.75 1.75 1 4 C-0.8125 6.25 -0.8125 6.25 -3 8 C-3.66 8 -4.32 8 -5 8 C-4.67 6.68 -4.34 5.36 -4 4 C-3.34 4 -2.68 4 -2 4 C-1.34 2.68 -0.68 1.36 0 0 Z " fill="#2C3538" transform="translate(1283,672)"/>
<path d="M0 0 C2.97 0.495 2.97 0.495 6 1 C6 2.32 6 3.64 6 5 C5.01 5 4.02 5 3 5 C2.67 4.01 2.34 3.02 2 2 C1.34 1.34 0.68 0.68 0 0 Z " fill="#BBC2C3" transform="translate(1144,638)"/>
<path d="M0 0 C-5.2734375 3.22265625 -5.2734375 3.22265625 -7 4 C-7.66 3.67 -8.32 3.34 -9 3 C-7 0 -7 0 -4.5 -0.75 C-2 -1 -2 -1 0 0 Z " fill="#C7CBCC" transform="translate(1214,1380)"/>
<path d="M0 0 C0.99 0.33 1.98 0.66 3 1 C3 2.98 3 4.96 3 7 C2.01 6.67 1.02 6.34 0 6 C0 4.02 0 2.04 0 0 Z " fill="#818987" transform="translate(1874,961)"/>
<path d="M0 0 C2.49361571 1.20381448 4.68143083 2.45428722 7 4 C6.67 4.99 6.34 5.98 6 7 C3.95880212 5.38405168 1.95927063 3.7143618 0 2 C0 1.34 0 0.68 0 0 Z " fill="#E5EAE9" transform="translate(1721,701)"/>
</svg>
